<svg width="167" height="42" viewBox="0 0 167 42" fill="none" xmlns="http://www.w3.org/2000/svg">
<path fill-rule="evenodd" clip-rule="evenodd" d="M19.7996 0.078037C19.2937 -0.0260123 18.772 -0.0260123 18.266 0.078037C17.6812 0.198314 17.1585 0.491079 16.743 0.72383L16.6297 0.787099L2.54592 8.61145C2.50698 8.63308 2.46686 8.65512 2.42575 8.67776C1.98585 8.92008 1.43276 9.2247 1.00801 9.6856C0.640779 10.0842 0.362871 10.5564 0.192867 11.071C-0.00376634 11.6661 -0.00146578 12.2976 0.000363785 12.7998C0.00053481 12.8467 0.00070163 12.8925 0.00070163 12.937V28.3856C0.00070163 28.4301 0.00053481 28.476 0.000363785 28.5229C-0.00146578 29.0251 -0.00376635 29.6565 0.192868 30.2516C0.362872 30.7662 0.640782 31.2385 1.00801 31.637C1.43276 32.0979 1.98586 32.4025 2.42575 32.6449C2.46686 32.6675 2.50698 32.6896 2.54592 32.7113L16.6297 40.5356L16.743 40.5988C17.1585 40.8316 17.6812 41.1244 18.266 41.2446C18.772 41.3487 19.2937 41.3487 19.7996 41.2446C20.3844 41.1244 20.9071 40.8316 21.3227 40.5988L21.4359 40.5356L35.5197 32.7113C35.537 32.7017 35.5544 32.692 35.572 32.6822C35.5943 32.67 35.6169 32.6575 35.6398 32.6449C36.0798 32.4025 36.6328 32.0979 37.0576 31.637C37.4248 31.2385 37.7028 30.7662 37.8728 30.2516C38.0694 29.6565 38.0671 29.0251 38.0652 28.5229C38.0651 28.476 38.0649 28.4301 38.0649 28.3856V12.937C38.0649 12.8925 38.0651 12.8467 38.0652 12.7998C38.0671 12.2976 38.0694 11.6661 37.8728 11.071C37.7028 10.5564 37.4248 10.0841 37.0576 9.6856C36.6328 9.2247 36.0798 8.92008 35.6398 8.67776L35.6383 8.67696C35.5978 8.65462 35.5581 8.63278 35.5197 8.61145L21.4359 0.787099L21.3227 0.72382C20.9071 0.491069 20.3844 0.198314 19.7996 0.078037ZM18.4782 4.11451C18.7666 3.95428 18.9139 3.87332 19.0237 3.82035L19.0328 3.81599L19.0419 3.82035C19.1517 3.87332 19.299 3.95428 19.5874 4.11451L32.2427 11.1452L19.0327 18.4841L5.82289 11.1453L18.4782 4.11451ZM3.80712 14.3798L17.1295 21.7811L17.1296 36.4588L4.39448 29.3839C4.09006 29.2147 3.93463 29.1274 3.82558 29.058L3.81638 29.0521L3.81569 29.0412C3.80791 28.9121 3.80712 28.7338 3.80712 28.3856V14.3798Z" fill="#FE4A0F"/>
<path d="M55.3863 27.0215H61.4447V30.5917H50.7613V11.605H55.3863V27.0215Z" fill="#FE4A0F"/>
<path d="M65.7061 13.9311C64.8947 13.9311 64.2276 13.6967 63.7047 13.2279C63.1998 12.7411 62.9474 12.146 62.9474 11.4428C62.9474 10.7216 63.1998 10.1266 63.7047 9.65776C64.2276 9.17092 64.8947 8.9275 65.7061 8.9275C66.4995 8.9275 67.1486 9.17092 67.6535 9.65776C68.1764 10.1266 68.4378 10.7216 68.4378 11.4428C68.4378 12.146 68.1764 12.7411 67.6535 13.2279C67.1486 13.6967 66.4995 13.9311 65.7061 13.9311ZM68.0051 15.4998V30.5918H63.3801V15.4998H68.0051Z" fill="#FE4A0F"/>
<path d="M76.8203 15.2837C77.8841 15.2837 78.8127 15.5 79.6061 15.9328C80.4175 16.3655 81.0396 16.9335 81.4723 17.6367V15.5H86.0973V30.565C86.0973 31.9534 85.8178 33.2066 85.2589 34.3245C84.7179 35.4604 83.8795 36.362 82.7435 37.0291C81.6256 37.6963 80.2282 38.0299 78.5513 38.0299C76.3154 38.0299 74.5033 37.498 73.1149 36.4341C71.7265 35.3883 70.9332 33.9639 70.7348 32.1608H75.3057C75.4499 32.7378 75.7925 33.1885 76.3335 33.5131C76.8744 33.8557 77.5415 34.027 78.3349 34.027C79.2906 34.027 80.0479 33.7475 80.6068 33.1885C81.1838 32.6476 81.4723 31.7731 81.4723 30.565V28.4283C81.0216 29.1315 80.3995 29.7085 79.6061 30.1593C78.8127 30.5921 77.8841 30.8084 76.8203 30.8084C75.5762 30.8084 74.4492 30.4929 73.4395 29.8618C72.4297 29.2127 71.6274 28.3021 71.0323 27.1301C70.4553 25.94 70.1668 24.5697 70.1668 23.019C70.1668 21.4683 70.4553 20.107 71.0323 18.935C71.6274 17.7629 72.4297 16.8614 73.4395 16.2303C74.4492 15.5992 75.5762 15.2837 76.8203 15.2837ZM81.4723 23.046C81.4723 21.8921 81.1478 20.9815 80.4986 20.3143C79.8676 19.6472 79.0922 19.3136 78.1726 19.3136C77.2531 19.3136 76.4687 19.6472 75.8196 20.3143C75.1885 20.9635 74.8729 21.865 74.8729 23.019C74.8729 24.173 75.1885 25.0926 75.8196 25.7778C76.4687 26.4449 77.2531 26.7785 78.1726 26.7785C79.0922 26.7785 79.8676 26.4449 80.4986 25.7778C81.1478 25.1106 81.4723 24.2 81.4723 23.046Z" fill="#FE4A0F"/>
<path d="M98.4497 15.3375C100.181 15.3375 101.569 15.9145 102.615 17.0685C103.661 18.2045 104.184 19.7732 104.184 21.7746V30.5918H99.5857V22.3967C99.5857 21.3869 99.3242 20.6026 98.8013 20.0436C98.2784 19.4847 97.5752 19.2052 96.6917 19.2052C95.8082 19.2052 95.105 19.4847 94.5821 20.0436C94.0592 20.6026 93.7977 21.3869 93.7977 22.3967V30.5918H89.1727V10.5773H93.7977V17.5283C94.2665 16.8611 94.9066 16.3292 95.718 15.9325C96.5294 15.5359 97.44 15.3375 98.4497 15.3375Z" fill="#FE4A0F"/>
<path d="M115.538 26.6702V30.592H113.185C111.508 30.592 110.201 30.1863 109.263 29.3749C108.326 28.5455 107.857 27.2022 107.857 25.345V19.3406H106.018V15.5H107.857V11.8216H112.482V15.5H115.511V19.3406H112.482V25.399C112.482 25.8498 112.59 26.1744 112.806 26.3727C113.023 26.5711 113.383 26.6702 113.888 26.6702H115.538Z" fill="#FE4A0F"/>
<path d="M122.469 17.6365C122.902 16.9333 123.524 16.3653 124.335 15.9325C125.147 15.4998 126.075 15.2834 127.121 15.2834C128.365 15.2834 129.492 15.599 130.502 16.2301C131.512 16.8611 132.305 17.7627 132.882 18.9347C133.477 20.1067 133.775 21.4681 133.775 23.0188C133.775 24.5694 133.477 25.9398 132.882 27.1298C132.305 28.3019 131.512 29.2124 130.502 29.8616C129.492 30.4926 128.365 30.8082 127.121 30.8082C126.057 30.8082 125.129 30.6008 124.335 30.1861C123.542 29.7534 122.92 29.1854 122.469 28.4822V30.5918H117.844V10.5773H122.469V17.6365ZM129.069 23.0188C129.069 21.8648 128.744 20.9632 128.095 20.3141C127.464 19.6469 126.679 19.3134 125.742 19.3134C124.822 19.3134 124.038 19.6469 123.389 20.3141C122.758 20.9812 122.442 21.8918 122.442 23.0458C122.442 24.1998 122.758 25.1104 123.389 25.7775C124.038 26.4447 124.822 26.7782 125.742 26.7782C126.661 26.7782 127.446 26.4447 128.095 25.7775C128.744 25.0923 129.069 24.1727 129.069 23.0188Z" fill="#FE4A0F"/>
<path d="M142.8 30.8084C141.322 30.8084 139.988 30.4929 138.798 29.8618C137.626 29.2307 136.697 28.3292 136.012 27.1571C135.345 25.9851 135.011 24.6148 135.011 23.046C135.011 21.4954 135.354 20.134 136.039 18.962C136.724 17.772 137.662 16.8614 138.852 16.2303C140.042 15.5992 141.376 15.2837 142.855 15.2837C144.333 15.2837 145.667 15.5992 146.857 16.2303C148.047 16.8614 148.985 17.772 149.67 18.962C150.355 20.134 150.698 21.4954 150.698 23.046C150.698 24.5967 150.346 25.9671 149.643 27.1571C148.958 28.3292 148.011 29.2307 146.803 29.8618C145.613 30.4929 144.279 30.8084 142.8 30.8084ZM142.8 26.8055C143.684 26.8055 144.432 26.481 145.045 25.8318C145.676 25.1827 145.992 24.2541 145.992 23.046C145.992 21.838 145.685 20.9094 145.072 20.2602C144.477 19.6111 143.738 19.2866 142.855 19.2866C141.953 19.2866 141.205 19.6111 140.61 20.2602C140.015 20.8913 139.717 21.8199 139.717 23.046C139.717 24.2541 140.006 25.1827 140.583 25.8318C141.178 26.481 141.917 26.8055 142.8 26.8055Z" fill="#FE4A0F"/>
<path d="M161.807 30.5919L158.913 26.3996L156.479 30.5919H151.475L156.452 22.8836L151.34 15.4999H156.533L159.427 19.665L161.861 15.4999H166.865L161.807 23.1L167 30.5919H161.807Z" fill="#FE4A0F"/>
</svg>
