<svg width="59" height="57" viewBox="0 0 59 57" fill="none" xmlns="http://www.w3.org/2000/svg">
<path d="M16.9454 17.8869C17.0274 16.9612 18.214 16.6332 18.7598 17.3853L21.1102 20.624C24.3491 25.0868 29.2792 28.023 34.746 28.7448L37.4718 29.1046C38.3514 29.2208 38.66 30.3366 37.965 30.8881L35.421 32.9069C31.332 36.1518 28.6658 40.8603 27.9868 46.0361L27.5615 49.2771C27.446 50.1576 26.3289 50.4665 25.7774 49.7704L23.7042 47.1534C20.4885 43.0943 15.8302 40.433 10.7004 39.7243L7.5652 39.2912C6.69201 39.1706 6.38614 38.0644 7.07333 37.5123L9.15355 35.8411C13.4197 32.4139 16.1039 27.3952 16.5864 21.9442L16.9454 17.8869Z" fill="#FE4A0F"/>
<path d="M38.5961 3.32356C38.6398 2.82947 39.2731 2.65435 39.5645 3.0558L39.7718 3.34148C41.3682 5.54115 43.7982 6.98834 46.4927 7.3441C46.9263 7.40135 47.0783 7.95132 46.7358 8.22316L46.6924 8.25758C44.5814 9.93277 43.2044 12.3681 42.8539 15.0401C42.7941 15.4953 42.2164 15.6563 41.9313 15.2965L41.8959 15.2517C40.2418 13.1638 37.8456 11.7948 35.2068 11.4303L35.1527 11.4228C34.724 11.3636 34.5739 10.8205 34.9112 10.5495C37.0057 8.86684 38.3235 6.40293 38.5604 3.72676L38.5961 3.32356Z" fill="#FE4A0F"/>
<path d="M52.2678 23.8176C52.2947 23.5139 52.684 23.4063 52.863 23.653L52.9905 23.8286C53.9717 25.1807 55.4654 26.0702 57.1216 26.2889C57.3881 26.3241 57.4816 26.6621 57.271 26.8292L57.2443 26.8504C55.9468 27.8801 55.1004 29.377 54.8849 31.0194C54.8482 31.2992 54.4931 31.3982 54.3179 31.177L54.2961 31.1495C53.2793 29.8661 51.8065 29.0246 50.1845 28.8006L50.1513 28.796C49.8878 28.7596 49.7955 28.4257 50.0028 28.2591C51.2902 27.2249 52.1003 25.7104 52.2458 24.0654L52.2678 23.8176Z" fill="#FE4A0F"/>
</svg>
