<svg width="264" height="30" viewBox="0 0 264 30" fill="none" xmlns="http://www.w3.org/2000/svg">
<g clip-path="url(#clip0_0_594)">
<path d="M27.7198 -0.0703125H3.37252C1.66707 -0.0703125 0.273438 1.32332 0.273438 3.02877V5.37098H30.8189V3.02877C30.8189 1.32332 29.4252 -0.0703125 27.7198 -0.0703125ZM4.97427 3.28664H3.70154V2.01391H4.97427V3.28664ZM7.62009 3.28664H6.34736V2.01391H7.62009V3.28664ZM10.2659 3.28664H8.99318V2.01391H10.2659V3.28664ZM27.3908 3.28664H12.175V2.01391H27.3908V3.28664Z" fill="#FE4A0F"/>
<path d="M0.273438 25.9733C0.273438 27.5635 1.66707 28.8628 3.37252 28.8628H27.7198C29.4252 28.8628 30.8189 27.5635 30.8189 25.9733V6.64355H0.273438V25.9733ZM6.10255 10.915C6.93618 10.915 7.63617 11.4135 7.90343 12.1017H13.2743V10.5709H17.8307V12.1017H23.1889C23.4561 11.4135 24.1562 10.915 24.9898 10.915C26.0398 10.915 26.8989 11.716 26.8989 12.695C26.8989 13.6799 26.0398 14.4749 24.9898 14.4749C24.1562 14.4749 23.4498 13.9825 23.1889 13.2883H20.1152C22.4443 14.6114 24.0416 16.9075 24.3216 19.5003H26.008V23.7485H21.4516V19.5003H23.0425C22.6989 16.7652 20.6498 14.4453 17.8307 13.6147V14.8191H13.2743V13.6147C10.4616 14.4453 8.41255 16.771 8.06252 19.5003H9.65343V23.7485H5.09708V19.5003H6.78346C7.06342 16.9075 8.6607 14.6114 10.9898 13.2883H7.90343C7.64254 13.9825 6.93618 14.4749 6.10255 14.4749C5.05253 14.4749 4.19346 13.6799 4.19346 12.695C4.19346 11.716 5.05253 10.915 6.10255 10.915Z" fill="#FE4A0F"/>
</g>
<defs>
<clipPath id="clip0_0_594">
<rect width="264" height="30" fill="white"/>
</clipPath>
</defs>
</svg>
