<svg width="153" height="21" viewBox="0 0 153 21" fill="none" xmlns="http://www.w3.org/2000/svg">
<path d="M142.173 11.5379V4.21051H145.768C146.233 4.2014 146.657 4.29253 147.04 4.48392C147.423 4.67531 147.728 4.95328 147.956 5.31782C148.192 5.67325 148.311 6.10615 148.311 6.61651C148.311 7.136 148.188 7.58256 147.942 7.95622C147.705 8.32078 147.391 8.59874 146.999 8.79012C146.607 8.9724 146.17 9.06353 145.686 9.06353H143.226V7.68282H145.277C145.559 7.68282 145.801 7.59623 146.001 7.42308C146.201 7.24991 146.302 6.98107 146.302 6.61651C146.302 6.26108 146.197 6.00591 145.987 5.85097C145.787 5.68692 145.554 5.6049 145.29 5.6049H144.087V11.5379H142.173ZM146.862 8.14761L148.543 11.5379H146.438L144.879 8.14761H146.862ZM145.044 15.9124C143.95 15.9124 142.92 15.7073 141.955 15.2973C140.997 14.8781 140.154 14.3039 139.425 13.5748C138.696 12.8457 138.127 12.0027 137.716 11.0458C137.307 10.0797 137.102 9.04986 137.102 7.95622C137.102 6.86259 137.307 5.8373 137.716 4.88037C138.127 3.91432 138.696 3.06675 139.425 2.33765C140.154 1.60856 140.997 1.03896 141.955 0.628843C142.92 0.209614 143.95 0 145.044 0C146.147 0 147.177 0.209614 148.133 0.628843C149.1 1.03896 149.947 1.60856 150.676 2.33765C151.405 3.06675 151.975 3.91432 152.384 4.88037C152.795 5.8373 153 6.86259 153 7.95622C153 9.04986 152.795 10.0797 152.384 11.0458C151.975 12.0027 151.405 12.8457 150.676 13.5748C149.957 14.3039 149.113 14.8781 148.147 15.2973C147.181 15.7073 146.147 15.9124 145.044 15.9124ZM145.044 13.8072C146.129 13.8072 147.112 13.5474 147.996 13.0279C148.889 12.4994 149.596 11.7931 150.115 10.9091C150.644 10.0159 150.909 9.03164 150.909 7.95622C150.909 6.88081 150.644 5.90109 150.115 5.01707C149.596 4.12393 148.889 3.41763 147.996 2.89814C147.112 2.36955 146.129 2.10526 145.044 2.10526C143.968 2.10526 142.988 2.36955 142.104 2.89814C141.22 3.41763 140.514 4.12393 139.986 5.01707C139.466 5.90109 139.207 6.88081 139.207 7.95622C139.207 9.03164 139.466 10.0159 139.986 10.9091C140.514 11.7931 141.22 12.4994 142.104 13.0279C142.988 13.5474 143.968 13.8072 145.044 13.8072Z" fill="#FE4A0F"/>
<path d="M117.197 0.273544H122.023L126.671 9.05H126.862L131.51 0.273544H136.336L128.913 13.4519V20.6425H124.634V13.4519L117.197 0.273544Z" fill="#FE4A0F"/>
<path d="M99.603 3.82787V0.273544H116.335V3.82787H110.102V20.6425H105.85V3.82787H99.603Z" fill="#FE4A0F"/>
<path d="M97.7579 0.273544V20.6425H94.0395L85.1947 7.83332H85.017V20.6425H80.7245V0.273544H84.4975L93.2877 13.0828H93.4654V0.273544H97.7579Z" fill="#FE4A0F"/>
<path d="M73.7795 0.273544H78.0857V13.4929C78.0857 14.9784 77.7303 16.2817 77.0194 17.4026C76.3176 18.5145 75.3334 19.3804 74.0666 20C72.7998 20.6198 71.3233 20.9297 69.6374 20.9297C67.9513 20.9297 66.4749 20.6198 65.2081 20C63.9413 19.3804 62.9571 18.5145 62.2552 17.4026C61.5535 16.2817 61.2027 14.9784 61.2027 13.4929V0.273544H65.4952V13.1375C65.4952 13.9122 65.6684 14.6047 66.0146 15.2154C66.3609 15.8169 66.844 16.2908 67.4638 16.6371C68.0834 16.9744 68.808 17.1429 69.6374 17.1429C70.4758 17.1429 71.2049 16.9744 71.8246 16.6371C72.4444 16.2908 72.9228 15.8169 73.2601 15.2154C73.6064 14.6047 73.7795 13.9122 73.7795 13.1375V0.273544Z" fill="#FE4A0F"/>
<path d="M49.4048 20.9159C47.6004 20.9159 45.9781 20.5057 44.5382 19.6855C43.0982 18.8653 41.959 17.676 41.1205 16.1175C40.282 14.559 39.8628 12.6771 39.8628 10.4716C39.8628 8.24787 40.282 6.35678 41.1205 4.79834C41.959 3.23079 43.0982 2.04146 44.5382 1.23035C45.9781 0.410114 47.6004 0 49.4048 0C51.2093 0 52.8316 0.410114 54.2715 1.23035C55.7115 2.04146 56.8462 3.23079 57.6754 4.79834C58.514 6.35678 58.9332 8.24787 58.9332 10.4716C58.9332 12.6862 58.514 14.5727 57.6754 16.1312C56.8462 17.6896 55.7115 18.879 54.2715 19.6992C52.8316 20.5103 51.2093 20.9159 49.4048 20.9159ZM49.4048 17.1154C50.453 17.1154 51.3643 16.8603 52.1389 16.3499C52.9136 15.8395 53.5105 15.0922 53.9297 14.108C54.3581 13.1145 54.5723 11.9025 54.5723 10.4716C54.5723 9.03164 54.3581 7.81496 53.9297 6.82157C53.5105 5.82818 52.9136 5.0763 52.1389 4.56594C51.3643 4.05558 50.453 3.80039 49.4048 3.80039C48.3659 3.80039 47.4591 4.05558 46.6844 4.56594C45.9098 5.0763 45.3037 5.82818 44.8663 6.82157C44.4379 7.81496 44.2238 9.03164 44.2238 10.4716C44.2238 11.9025 44.4379 13.1145 44.8663 14.108C45.3037 15.0922 45.9098 15.8395 46.6844 16.3499C47.4591 16.8603 48.3659 17.1154 49.4048 17.1154Z" fill="#FE4A0F"/>
<path d="M29.2002 20.9159C27.3957 20.9159 25.778 20.5057 24.3472 19.6855C22.9163 18.8653 21.7862 17.676 20.9569 16.1175C20.1275 14.559 19.7129 12.6771 19.7129 10.4716C19.7129 8.24787 20.1275 6.35678 20.9569 4.79834C21.7953 3.23079 22.9299 2.04146 24.3609 1.23035C25.8007 0.410114 27.4139 0 29.2002 0C30.385 0 31.4832 0.168603 32.4948 0.505808C33.5064 0.8339 34.3995 1.31693 35.1742 1.95488C35.958 2.58372 36.596 3.35838 37.0881 4.27886C37.5802 5.19023 37.8946 6.23374 38.0313 7.40941H33.6841C33.6021 6.85347 33.438 6.35222 33.192 5.90565C32.955 5.45908 32.6405 5.08086 32.2487 4.771C31.8659 4.46114 31.4239 4.22418 30.9227 4.06014C30.4305 3.88697 29.8882 3.80039 29.2959 3.80039C28.257 3.80039 27.341 4.06469 26.5481 4.59329C25.7643 5.11276 25.1537 5.8692 24.7162 6.86259C24.288 7.84686 24.0737 9.04986 24.0737 10.4716C24.0737 11.9207 24.2925 13.1419 24.7299 14.1353C25.1674 15.1196 25.778 15.8623 26.5618 16.3636C27.3455 16.8648 28.2523 17.1154 29.2822 17.1154C29.8563 17.1154 30.3895 17.038 30.8816 16.8831C31.3738 16.7281 31.8113 16.5048 32.194 16.2132C32.5768 15.9216 32.8958 15.5661 33.151 15.1469C33.4153 14.7186 33.593 14.231 33.6841 13.6841H38.0313C37.922 14.6229 37.644 15.5251 37.1974 16.3909C36.76 17.2567 36.163 18.0314 35.4066 18.7149C34.6502 19.3893 33.7524 19.927 32.7135 20.328C31.6745 20.7199 30.5035 20.9159 29.2002 20.9159Z" fill="#FE4A0F"/>
<path d="M4.60696 20.6425H0L7.02663 0.273544H12.5769L19.5898 20.6425H14.9966L9.88376 4.92151H9.71972L4.60696 20.6425ZM4.33355 12.6317H15.2289V15.9946H4.33355V12.6317Z" fill="#FE4A0F"/>
</svg>
