<svg width="181" height="43" viewBox="0 0 181 43" fill="none" xmlns="http://www.w3.org/2000/svg">
<mask id="mask0_0_1167" style="mask-type:luminance" maskUnits="userSpaceOnUse" x="-1" y="-1" width="45" height="45">
<path d="M43.6869 -0.991352H-0.341037V43.0366H43.6869V-0.991352Z" fill="white"/>
</mask>
<g mask="url(#mask0_0_1167)">
<path d="M26.9457 1.13169L22.7222 0L19.163 13.2831L15.9497 1.29103L11.7261 2.42272L15.1979 15.3792L6.55058 6.73196L3.45875 9.82381L12.9438 19.3089L1.13169 16.1438L0 20.3673L12.9062 23.8255C12.7585 23.1882 12.6803 22.5242 12.6803 21.8418C12.6803 17.0121 16.5955 13.0968 21.4253 13.0968C26.255 13.0968 30.1703 17.0121 30.1703 21.8418C30.1703 22.5198 30.0931 23.1797 29.9472 23.8133L41.6765 26.9561L42.8081 22.7327L29.8506 19.2607L41.6635 16.0954L40.5318 11.8719L27.5748 15.3437L36.2222 6.69646L33.1303 3.60464L23.7769 12.9581L26.9457 1.13169Z" fill="#FE4A0F"/>
<path d="M29.9349 23.8623C29.5728 25.3933 28.8083 26.7686 27.7593 27.8704L36.2567 36.3679L39.3486 33.2761L29.9349 23.8623Z" fill="#FE4A0F"/>
<path d="M27.6735 27.9594C26.6119 29.0437 25.2703 29.8528 23.7658 30.2699L26.8579 41.8094L31.0814 40.6777L27.6735 27.9594Z" fill="#FE4A0F"/>
<path d="M23.6081 30.312C22.9101 30.4914 22.1785 30.5867 21.4246 30.5867C20.6168 30.5867 19.8346 30.4772 19.0921 30.2721L15.9972 41.8224L20.2207 42.954L23.6081 30.312Z" fill="#FE4A0F"/>
<path d="M18.9427 30.2297C17.4612 29.792 16.1435 28.9725 15.1035 27.8851L6.58523 36.4035L9.67708 39.4953L18.9427 30.2297Z" fill="#FE4A0F"/>
<path d="M15.0334 27.8097C14.0113 26.7154 13.2668 25.3586 12.9125 23.8513L1.14477 27.0044L2.27645 31.2279L15.0334 27.8097Z" fill="#FE4A0F"/>
</g>
<path d="M68.2226 9.92476V25.1444L58.4664 9.92476H54.5639V30.9381H58.4664V15.8385L68.2226 30.9381H72.1251V9.92476H68.2226Z" fill="#FE4A0F"/>
<path d="M73.8838 13.8573H77.9064V9.92476H73.8838V13.8573ZM73.9438 30.9381V15.9286H77.8463V30.9381H73.9438Z" fill="#FE4A0F"/>
<path d="M94.6368 23.4334C94.6368 18.2401 90.9445 15.7786 87.042 15.7485C83.1095 15.7185 79.4772 18.2401 79.4772 23.4334C79.4772 28.6267 83.1095 31.1483 87.042 31.1183C90.6143 31.0883 93.0758 29.4372 94.2165 26.7055L91.1846 25.4447C90.254 27.3059 88.7831 27.9663 87.042 27.9963C85.541 28.0263 83.83 27.3059 83.4697 24.6342H94.5468C94.6068 24.2439 94.6368 23.8537 94.6368 23.4334ZM87.042 18.8405C88.5429 18.8705 90.0739 19.681 90.5542 21.8424H83.5298C84.0401 19.651 85.5711 18.8105 87.042 18.8405Z" fill="#FE4A0F"/>
<path d="M103.656 18.7204V15.7485H101.194V11.7259L97.2916 12.9267V15.7485H94.8301V18.7204H97.2916V26.4953C97.2916 29.4372 97.5318 30.9381 102.095 30.9381H103.146V27.516H102.095C101.375 27.516 101.194 27.3959 101.194 26.4953V18.7204H103.656Z" fill="#FE4A0F"/>
<path d="M109.455 27.666L117.74 19.2006V15.9286H105.312V19.2006H113.357L105.072 27.666V30.9381H117.83V27.666H109.455Z" fill="#FE4A0F"/>
<path d="M119.229 26.7054L123.161 26.1051C123.432 27.606 125.203 28.1764 126.283 28.1764C127.394 28.1764 129.315 27.9362 129.315 26.1351C129.315 22.6229 119.679 27.0056 119.679 20.2814C119.679 15.9586 124.692 15.7185 126.283 15.7185C127.784 15.7185 132.137 15.9586 133.038 19.4408L129.315 20.2213C128.985 18.6303 127.304 18.3301 126.403 18.3301C125.503 18.3301 123.582 18.5403 123.582 20.2814C123.582 23.7636 133.218 19.3208 133.218 26.1351C133.218 30.728 127.934 31.1182 126.283 31.1182C124.782 31.1182 120.009 30.728 119.229 26.7054Z" fill="#FE4A0F"/>
<path d="M138.288 23.4334C138.288 27.0957 140.239 28.2064 142.28 28.1764C144.112 28.1464 145.372 27.3959 146.123 25.2946L149.335 26.8556C148.164 29.9175 145.312 31.0883 142.28 31.1183C138.348 31.1483 134.385 28.6267 134.385 23.4334C134.385 18.2401 138.348 15.7185 142.28 15.7485C145.312 15.7786 148.164 16.9493 149.335 20.0112L146.123 21.5722C145.372 19.4709 144.112 18.7204 142.28 18.6904C140.239 18.6604 138.288 19.7711 138.288 23.4334Z" fill="#FE4A0F"/>
<path d="M159.811 15.6884C157.799 15.6884 155.968 16.7391 154.797 18.9905V9.92476H150.895V30.9381H154.797V25.6247C154.797 18.7504 157.649 18.18 158.7 18.18C160.381 18.18 160.621 19.9211 160.621 22.4727V30.9381H164.524V22.4727C164.524 19.2907 164.013 15.6884 159.811 15.6884Z" fill="#FE4A0F"/>
<path d="M181 23.4334C181 18.2401 177.308 15.7786 173.405 15.7485C169.473 15.7185 165.84 18.2401 165.84 23.4334C165.84 28.6267 169.473 31.1483 173.405 31.1183C176.977 31.0883 179.439 29.4372 180.58 26.7055L177.548 25.4447C176.617 27.3059 175.146 27.9663 173.405 27.9963C171.904 28.0263 170.193 27.3059 169.833 24.6342H180.91C180.97 24.2439 181 23.8537 181 23.4334ZM173.405 18.8405C174.906 18.8705 176.437 19.681 176.917 21.8424H169.893C170.403 19.651 171.934 18.8105 173.405 18.8405Z" fill="#FE4A0F"/>
</svg>
