<svg width="21" height="26" viewBox="0 0 21 26" fill="none" xmlns="http://www.w3.org/2000/svg">
<path d="M20.1964 11.1429H12.0714C11.3326 11.1429 10.6241 10.8494 10.1016 10.3269C9.57921 9.80452 9.28572 9.09596 9.28572 8.35714V0.232143C9.28572 0.170575 9.26126 0.111528 9.21772 0.0679931C9.17419 0.0244579 9.11514 0 9.05357 0H3.71429C2.7292 0 1.78445 0.391325 1.08789 1.08789C0.391325 1.78445 0 2.7292 0 3.71429V22.2857C0 23.2708 0.391325 24.2155 1.08789 24.9121C1.78445 25.6087 2.7292 26 3.71429 26H16.7143C17.6994 26 18.6441 25.6087 19.3407 24.9121C20.0372 24.2155 20.4286 23.2708 20.4286 22.2857V11.375C20.4286 11.3134 20.4041 11.2544 20.3606 11.2108C20.317 11.1673 20.258 11.1429 20.1964 11.1429Z" fill="#FE4A0F"/>
<path d="M19.6869 9.08779L11.3408 0.74167C11.3246 0.725535 11.3039 0.714559 11.2815 0.71012C11.259 0.705682 11.2358 0.707979 11.2146 0.716724C11.1935 0.725469 11.1754 0.740271 11.1626 0.75927C11.1498 0.778268 11.143 0.800615 11.1429 0.8235V8.35712C11.1429 8.60339 11.2407 8.83957 11.4149 9.01372C11.589 9.18786 11.8252 9.28569 12.0715 9.28569H19.6051C19.628 9.28559 19.6503 9.27873 19.6693 9.26597C19.6883 9.25321 19.7031 9.23512 19.7118 9.21397C19.7206 9.19282 19.7229 9.16956 19.7185 9.14711C19.714 9.12466 19.703 9.10402 19.6869 9.08779Z" fill="#FE4A0F"/>
</svg>
