<svg width="43" height="43" viewBox="0 0 43 43" fill="none" xmlns="http://www.w3.org/2000/svg">
<g filter="url(#filter0_d_0_579)">
<circle cx="21.5" cy="21.5" r="21.5" fill="white"/>
</g>
<path d="M22.5714 15.0407C22.7425 14.8697 22.9745 14.7737 23.2163 14.7737C23.4582 14.7737 23.6902 14.8697 23.8612 15.0407L29.3341 20.5136C29.5051 20.6847 29.6012 20.9167 29.6012 21.1585C29.6012 21.4004 29.5051 21.6324 29.3341 21.8034L23.8612 27.2763C23.6892 27.4424 23.4588 27.5344 23.2196 27.5323C22.9804 27.5302 22.7517 27.4343 22.5825 27.2652C22.4134 27.0961 22.3175 26.8673 22.3154 26.6281C22.3133 26.389 22.4053 26.1585 22.5714 25.9865L26.4873 22.0707L14.3114 22.0708C14.0695 22.0708 13.8375 21.9747 13.6664 21.8036C13.4954 21.6325 13.3993 21.4005 13.3993 21.1586C13.3993 20.9167 13.4954 20.6847 13.6664 20.5136C13.8375 20.3426 14.0695 20.2465 14.3114 20.2465L26.4873 20.2464L22.5714 16.3305C22.4004 16.1595 22.3044 15.9275 22.3044 15.6856C22.3044 15.4438 22.4004 15.2118 22.5714 15.0407Z" fill="#FE4A0F"/>
<defs>
<filter id="filter0_d_0_579" x="-10.1179" y="-6.07073" width="63.2358" height="63.2358" filterUnits="userSpaceOnUse" color-interpolation-filters="sRGB">
<feFlood flood-opacity="0" result="BackgroundImageFix"/>
<feColorMatrix in="SourceAlpha" type="matrix" values="0 0 0 0 0 0 0 0 0 0 0 0 0 0 0 0 0 0 127 0" result="hardAlpha"/>
<feOffset dy="4"/>
<feGaussianBlur stdDeviation="5"/>
<feComposite in2="hardAlpha" operator="out"/>
<feColorMatrix type="matrix" values="0 0 0 0 0 0 0 0 0 0 0 0 0 0 0 0 0 0 0.1 0"/>
<feBlend mode="normal" in2="BackgroundImageFix" result="effect1_dropShadow_0_579"/>
<feBlend mode="normal" in="SourceGraphic" in2="effect1_dropShadow_0_579" result="shape"/>
</filter>
</defs>
</svg>
