<svg width="197" height="44" viewBox="0 0 197 44" fill="none" xmlns="http://www.w3.org/2000/svg">
<path d="M30.4289 0H13.5711L0 13.5711V30.4289L13.5711 44H30.4289L44 30.4289V13.5711L30.4289 0ZM15.9036 30.641L7.20966 21.947L15.9036 13.253C19.1904 9.9663 24.5976 9.9663 27.8844 13.253L36.5783 21.947L27.8844 30.641C24.5976 33.9277 19.2964 33.9277 15.9036 30.641Z" fill="#FE4A0F"/>
<path d="M63.34 32.24C66.04 32.24 68.26 30.86 68.95 28.79V32H72.94V23.9C72.94 22.07 71.5 20.51 69.55 20.51H63.85V23.9H67.9C68.41 23.9 68.74 24.23 68.74 24.74C68.74 26.69 66.16 28.58 63.55 28.58C60.07 28.58 57.31 25.85 57.31 21.5C57.31 17.15 60.07 14.63 63.64 14.63C66.34 14.63 68.2 16.1 68.53 18.35H73C72.73 13.85 68.95 10.76 63.67 10.76C58.12 10.76 53.02 14.33 53.02 21.5C53.02 28.67 57.97 32.24 63.34 32.24Z" fill="#FE4A0F"/>
<path d="M74.6528 32.0001H78.8228V10.3101H74.6528V32.0001Z" fill="#FE4A0F"/>
<path d="M87.8179 32.2401C92.4679 32.2401 95.7979 28.9401 95.7979 24.4401C95.7979 19.9401 92.4679 16.6401 87.8179 16.6401C83.1679 16.6401 79.8379 19.9401 79.8379 24.4401C79.8379 28.9401 83.1679 32.2401 87.8179 32.2401ZM87.8179 28.6401C85.5679 28.6401 84.0379 26.9301 84.0379 24.4401C84.0379 21.9201 85.5679 20.2101 87.8179 20.2101C90.0679 20.2101 91.5979 21.9201 91.5979 24.4401C91.5979 26.9301 90.0679 28.6401 87.8179 28.6401Z" fill="#FE4A0F"/>
<path d="M105.129 32.2401C109.599 32.2401 112.269 29.1501 112.269 24.4401C112.269 19.7301 109.599 16.6401 105.189 16.6401C103.299 16.6401 101.829 17.3601 100.989 18.4701V10.3101H96.8188V32.0001H100.989V30.3501C101.829 31.5201 103.389 32.2401 105.129 32.2401ZM104.469 28.6401C102.219 28.6401 100.749 26.9601 100.749 24.4401C100.749 21.8901 102.219 20.2101 104.469 20.2101C106.659 20.2101 108.159 21.8901 108.159 24.4401C108.159 26.9601 106.659 28.6401 104.469 28.6401Z" fill="#FE4A0F"/>
<path d="M119.249 16.6401C115.109 16.6401 112.649 19.0701 112.469 22.1001H116.189C116.249 20.8401 117.179 19.7001 119.009 19.7001C120.719 19.7001 121.709 20.5701 121.709 21.8301C121.709 22.4601 121.319 22.9401 120.569 22.9401H118.019C114.719 22.9401 112.499 24.7401 112.499 27.7101C112.499 30.2901 114.509 32.2401 117.449 32.2401C119.519 32.2401 121.199 31.3101 121.709 29.9001V32.0001H125.849V22.2801C125.849 18.8601 123.059 16.6401 119.249 16.6401ZM118.499 29.2101C117.329 29.2101 116.489 28.5201 116.489 27.5301C116.489 26.3601 117.389 25.5801 118.649 25.5801H121.709V25.7901C121.709 27.7101 120.539 29.2101 118.499 29.2101Z" fill="#FE4A0F"/>
<path d="M127.452 32.0001H131.622V10.3101H127.452V32.0001Z" fill="#FE4A0F"/>
<path d="M133.837 32H142.417C146.857 32 149.917 29.72 149.917 25.73C149.917 22.97 148.297 21.29 146.377 20.54C147.607 19.88 148.837 18.38 148.837 16.4C148.837 12.89 145.987 11 142.177 11H133.837V32ZM138.277 19.01V14.57H141.757C143.767 14.57 144.667 15.38 144.667 16.79C144.667 18.2 143.767 19.01 141.847 19.01H138.277ZM138.277 28.1V22.82H142.027C144.517 22.82 145.627 23.78 145.627 25.49C145.627 27.2 144.517 28.1 142.027 28.1H138.277Z" fill="#FE4A0F"/>
<path d="M157.171 16.6401C153.031 16.6401 150.571 19.0701 150.391 22.1001H154.111C154.171 20.8401 155.101 19.7001 156.931 19.7001C158.641 19.7001 159.631 20.5701 159.631 21.8301C159.631 22.4601 159.241 22.9401 158.491 22.9401H155.941C152.641 22.9401 150.421 24.7401 150.421 27.7101C150.421 30.2901 152.431 32.2401 155.371 32.2401C157.441 32.2401 159.121 31.3101 159.631 29.9001V32.0001H163.771V22.2801C163.771 18.8601 160.981 16.6401 157.171 16.6401ZM156.421 29.2101C155.251 29.2101 154.411 28.5201 154.411 27.5301C154.411 26.3601 155.311 25.5801 156.571 25.5801H159.631V25.7901C159.631 27.7101 158.461 29.2101 156.421 29.2101Z" fill="#FE4A0F"/>
<path d="M165.134 32.0001H169.334V23.7201C169.334 21.7701 170.624 20.3601 172.454 20.3601C174.194 20.3601 175.364 21.6801 175.364 23.5101V32.0001H179.564V22.5801C179.564 19.1001 177.344 16.6401 173.924 16.6401C171.854 16.6401 170.174 17.5101 169.334 18.9801V16.8801H165.134V32.0001Z" fill="#FE4A0F"/>
<path d="M191.534 32.0001H196.574L190.064 22.8201L196.094 16.8801H190.814L185.564 22.0401V10.3101H181.364V32.0001H185.564V27.2601L187.244 25.6101L191.534 32.0001Z" fill="#FE4A0F"/>
</svg>
