<svg width="27" height="27" viewBox="0 0 27 27" fill="none" xmlns="http://www.w3.org/2000/svg">
<path d="M18.8036 7.71383H8.19649C7.93021 7.71383 7.71435 7.92969 7.71435 8.19597V18.8031C7.71435 19.0694 7.93021 19.2853 8.19649 19.2853H18.8036C19.0699 19.2853 19.2858 19.0694 19.2858 18.8031V8.19597C19.2858 7.92969 19.0699 7.71383 18.8036 7.71383Z" fill="#FE4A0F"/>
<path d="M26.0357 9.64286C26.2915 9.64286 26.5367 9.54126 26.7176 9.36042C26.8984 9.17959 27 8.93432 27 8.67857C27 8.42283 26.8984 8.17756 26.7176 7.99672C26.5367 7.81588 26.2915 7.71429 26.0357 7.71429H25.0714V5.78571C25.0703 4.76308 24.6636 3.78265 23.9405 3.05954C23.2174 2.33642 22.2369 1.92969 21.2143 1.92857H19.2857V0.964286C19.2857 0.708541 19.1841 0.463271 19.0033 0.282433C18.8224 0.101594 18.5772 0 18.3214 0C18.0657 0 17.8204 0.101594 17.6396 0.282433C17.4587 0.463271 17.3571 0.708541 17.3571 0.964286V1.92857H14.4643V0.964286C14.4643 0.708541 14.3627 0.463271 14.1819 0.282433C14.001 0.101594 13.7557 0 13.5 0C13.2443 0 12.999 0.101594 12.8181 0.282433C12.6373 0.463271 12.5357 0.708541 12.5357 0.964286V1.92857H9.64286V0.964286C9.64286 0.708541 9.54126 0.463271 9.36042 0.282433C9.17959 0.101594 8.93432 0 8.67857 0C8.42283 0 8.17756 0.101594 7.99672 0.282433C7.81588 0.463271 7.71429 0.708541 7.71429 0.964286V1.92857H5.78571C4.76308 1.92969 3.78265 2.33642 3.05954 3.05954C2.33642 3.78265 1.92969 4.76308 1.92857 5.78571V7.71429H0.964286C0.708541 7.71429 0.463271 7.81588 0.282433 7.99672C0.101594 8.17756 0 8.42283 0 8.67857C0 8.93432 0.101594 9.17959 0.282433 9.36042C0.463271 9.54126 0.708541 9.64286 0.964286 9.64286H1.92857V12.5357H0.964286C0.708541 12.5357 0.463271 12.6373 0.282433 12.8181C0.101594 12.999 0 13.2443 0 13.5C0 13.7557 0.101594 14.001 0.282433 14.1819C0.463271 14.3627 0.708541 14.4643 0.964286 14.4643H1.92857V17.3571H0.964286C0.708541 17.3571 0.463271 17.4587 0.282433 17.6396C0.101594 17.8204 0 18.0657 0 18.3214C0 18.5772 0.101594 18.8224 0.282433 19.0033C0.463271 19.1841 0.708541 19.2857 0.964286 19.2857H1.92857V21.2143C1.92969 22.2369 2.33642 23.2174 3.05954 23.9405C3.78265 24.6636 4.76308 25.0703 5.78571 25.0714H7.71429V26.0357C7.71429 26.2915 7.81588 26.5367 7.99672 26.7176C8.17756 26.8984 8.42283 27 8.67857 27C8.93432 27 9.17959 26.8984 9.36042 26.7176C9.54126 26.5367 9.64286 26.2915 9.64286 26.0357V25.0714H12.5357V26.0357C12.5357 26.2915 12.6373 26.5367 12.8181 26.7176C12.999 26.8984 13.2443 27 13.5 27C13.7557 27 14.001 26.8984 14.1819 26.7176C14.3627 26.5367 14.4643 26.2915 14.4643 26.0357V25.0714H17.3571V26.0357C17.3571 26.2915 17.4587 26.5367 17.6396 26.7176C17.8204 26.8984 18.0657 27 18.3214 27C18.5772 27 18.8224 26.8984 19.0033 26.7176C19.1841 26.5367 19.2857 26.2915 19.2857 26.0357V25.0714H21.2143C22.2369 25.0703 23.2174 24.6636 23.9405 23.9405C24.6636 23.2174 25.0703 22.2369 25.0714 21.2143V19.2857H26.0357C26.2915 19.2857 26.5367 19.1841 26.7176 19.0033C26.8984 18.8224 27 18.5772 27 18.3214C27 18.0657 26.8984 17.8204 26.7176 17.6396C26.5367 17.4587 26.2915 17.3571 26.0357 17.3571H25.0714V14.4643H26.0357C26.2915 14.4643 26.5367 14.3627 26.7176 14.1819C26.8984 14.001 27 13.7557 27 13.5C27 13.2443 26.8984 12.999 26.7176 12.8181C26.5367 12.6373 26.2915 12.5357 26.0357 12.5357H25.0714V9.64286H26.0357ZM21.2143 19.2857C21.2143 19.7972 21.0111 20.2877 20.6494 20.6494C20.2877 21.0111 19.7972 21.2143 19.2857 21.2143H7.71429C7.2028 21.2143 6.71226 21.0111 6.35058 20.6494C5.9889 20.2877 5.78571 19.7972 5.78571 19.2857V7.71429C5.78571 7.2028 5.9889 6.71226 6.35058 6.35058C6.71226 5.9889 7.2028 5.78571 7.71429 5.78571H19.2857C19.7972 5.78571 20.2877 5.9889 20.6494 6.35058C21.0111 6.71226 21.2143 7.2028 21.2143 7.71429V19.2857Z" fill="#FE4A0F"/>
</svg>
