<svg width="49" height="54" viewBox="0 0 49 54" fill="none" xmlns="http://www.w3.org/2000/svg">
<g filter="url(#filter0_d_0_628)">
<path d="M0 24.3136C0 10.8856 10.8856 0 24.3136 0C37.7416 0 48.6271 10.8856 48.6271 24.3136V37.4414C48.6271 37.9942 48.179 38.4423 47.6263 38.4423C38.5625 38.4423 30.2125 43.3603 25.8176 51.2872L24.7474 53.2176C24.5684 53.5403 24.098 53.5206 23.9466 53.1841C19.9117 44.2126 10.8572 38.4423 1.02015 38.4423C0.461312 38.4423 0 37.9893 0 37.4304V24.3136Z" fill="white"/>
<path d="M24.314 0.50126C37.465 0.501524 48.1259 11.163 48.1259 24.314V37.4418C48.1257 37.7174 47.9022 37.9409 47.6266 37.9411C38.3806 37.9411 29.8625 42.9581 25.3792 51.0443L24.3591 52.8829C20.2208 43.7837 11.0163 37.9411 1.02014 37.9411C0.732816 37.9411 0.50126 37.7067 0.50126 37.43V24.314L0.509092 23.6992C0.834949 10.832 11.3683 0.50126 24.314 0.50126Z" stroke="#FE4A0F"/>
</g>
<defs>
<filter id="filter0_d_0_628" x="-10.0252" y="-6.01512" width="68.6775" height="73.499" filterUnits="userSpaceOnUse" color-interpolation-filters="sRGB">
<feFlood flood-opacity="0" result="BackgroundImageFix"/>
<feColorMatrix in="SourceAlpha" type="matrix" values="0 0 0 0 0 0 0 0 0 0 0 0 0 0 0 0 0 0 127 0" result="hardAlpha"/>
<feOffset dy="4"/>
<feGaussianBlur stdDeviation="5"/>
<feComposite in2="hardAlpha" operator="out"/>
<feColorMatrix type="matrix" values="0 0 0 0 0 0 0 0 0 0 0 0 0 0 0 0 0 0 0.1 0"/>
<feBlend mode="normal" in2="BackgroundImageFix" result="effect1_dropShadow_0_628"/>
<feBlend mode="normal" in="SourceGraphic" in2="effect1_dropShadow_0_628" result="shape"/>
</filter>
</defs>
</svg>
