<svg width="33" height="29" viewBox="0 0 33 29" fill="none" xmlns="http://www.w3.org/2000/svg">
<path d="M10.3009 2.18866e-07C7.56894 2.18866e-07 4.94886 1.08527 3.01707 3.01706C1.08527 4.94887 0 7.56894 0 10.3009C0 13.0329 1.08527 15.653 3.01707 17.5847C4.94886 19.5165 7.56894 20.6018 10.3009 20.6018H11.8754C11.7358 19.6258 11.7358 18.6348 11.8754 17.6587H10.3009C8.3495 17.6587 6.47801 16.8835 5.09816 15.5036C3.71831 14.1238 2.94312 12.2523 2.94312 10.3009C2.94312 8.3495 3.71831 6.47802 5.09816 5.09817C6.47801 3.71831 8.3495 2.94312 10.3009 2.94312H22.0734C23.1646 2.9429 24.2421 3.18538 25.228 3.65301C26.2139 4.12063 27.0835 4.80169 27.7737 5.64685C28.4639 6.49201 28.9576 7.4801 29.2187 8.53956C29.48 9.59903 29.5023 10.7033 29.284 11.7725C30.151 12.6225 30.8614 13.6189 31.3825 14.7155C32.1273 13.1453 32.4628 11.4122 32.3575 9.67739C32.2523 7.94263 31.7099 6.26268 30.7807 4.79394C29.8517 3.3252 28.566 2.11542 27.0436 1.27722C25.5211 0.439015 23.8113 -0.000358 22.0734 2.18866e-07H10.3009ZM14.7156 19.1302C14.7159 17.983 14.9844 16.8517 15.4997 15.8268C16.0151 14.8019 16.763 13.9116 17.6835 13.2272C18.6042 12.5427 19.6722 12.0831 20.8022 11.8849C21.9321 11.6866 23.0928 11.7554 24.1914 12.0857C25.2901 12.4159 26.2962 12.9985 27.1296 13.7869C27.9631 14.5752 28.6006 15.5475 28.9913 16.6262C29.382 17.7048 29.5151 18.8599 29.3799 19.999C29.2447 21.1383 28.8451 22.2301 28.2127 23.1874L31.9431 26.9192L29.8623 29L26.1305 25.2696C25.0214 26.0026 23.7345 26.4214 22.4065 26.4817C21.0785 26.5418 19.759 26.2411 18.5882 25.6115C17.4174 24.9817 16.4391 24.0466 15.7572 22.9054C15.0753 21.7642 14.7154 20.4597 14.7156 19.1302Z" fill="#FE4A0F"/>
</svg>
