<svg width="39" height="29" viewBox="0 0 39 29" fill="none" xmlns="http://www.w3.org/2000/svg">
<path d="M28.9311 25.7312C28.8378 26.6154 28.4251 27.4352 27.7705 28.0369C27.1159 28.6385 26.2642 28.9807 25.3754 28.9992C24.4865 29.0176 23.6213 28.7112 22.9423 28.1373C22.2632 27.5634 21.8168 26.7614 21.6869 25.8818L21.2807 23.4078L23.0655 23.709C23.7832 23.8325 24.4878 24.0236 25.1697 24.2796L28.8215 25.6491L28.9311 25.7312ZM26.215 10.1884C25.2406 10.5982 24.222 10.8939 23.1795 11.0694L21.7508 11.3113C20.6409 11.4984 19.6331 12.0726 18.9064 12.932C18.1797 13.7915 17.7809 14.8806 17.7809 16.0061C17.7809 17.1317 18.1797 18.2208 18.9064 19.0802C19.6331 19.9397 20.6409 20.5139 21.7508 20.7009L23.5401 21.0022C24.4367 21.1509 25.3161 21.3894 26.1649 21.7143L26.2699 21.7553C25.5826 19.8787 25.2424 17.8927 25.2656 15.8943C25.2436 13.9513 25.565 12.0196 26.215 10.1884ZM38.2704 15.8943C38.2704 20.8652 36.0657 24.6082 33.1352 24.6082C30.2046 24.6082 28.0044 20.8607 28.0044 15.8943C28.0044 10.9279 30.2092 7.16657 33.1352 7.16657C36.0611 7.16657 38.2704 10.9279 38.2704 15.8943ZM32.2679 16.013V18.7517C33.039 18.7517 33.7786 18.4454 34.3239 17.9001C34.8692 17.3549 35.1756 16.6153 35.1756 15.8441C35.1756 15.0729 34.8692 14.3333 34.3239 13.788C33.7786 13.2427 33.039 12.9364 32.2679 12.9364V15.6751M22.7276 8.37166C23.561 8.22709 24.3755 7.98977 25.156 7.66413L28.8626 6.11213V3.82978C28.8624 3.34007 28.7679 2.85497 28.5841 2.40103L21.4723 8.58164L22.7276 8.37166ZM16.6155 9.17502L26.7263 0.383434C26.2105 0.130635 25.6437 -0.000538278 25.0693 1.66014e-06H3.80696C3.23425 0.00127779 2.66928 0.132376 2.15454 0.383434L12.2882 9.17502C12.891 9.69092 13.6584 9.97451 14.4518 9.97451C15.2453 9.97451 16.0126 9.69092 16.6155 9.17502ZM15.0269 16.0038C15.028 14.7976 15.3192 13.6093 15.876 12.5393C15.4024 12.6554 14.9167 12.7151 14.429 12.7172C13.2997 12.7165 12.193 12.4003 11.2338 11.8043L2.43755 19.4912C2.87427 19.6604 3.3386 19.7471 3.80696 19.7469H16.0312C15.3741 18.6088 15.0278 17.318 15.0269 16.0038ZM0.278443 2.37821C0.0947043 2.83215 0.000169024 3.31724 0 3.80696V15.9262C0.0079817 16.5155 0.151684 17.095 0.419954 17.6198L9.09288 10.0515L0.278443 2.37821Z" fill="#FE4A0F"/>
</svg>
