<svg width="662" height="564" viewBox="0 0 662 564" fill="none" xmlns="http://www.w3.org/2000/svg">
<g filter="url(#filter0_d_0_645)">
<path d="M100.119 443.477L166.66 403.774L505.689 510.114L439.703 549.992L100.119 443.477Z" fill="#FE4A0F"/>
<path d="M100.118 389.196L166.659 349.493L505.689 455.836L439.703 495.713L100.118 389.196Z" fill="#FE4A0F"/>
<path d="M100.118 443.476V389.628L166.659 349.493V403.773L100.118 443.476Z" fill="#FE4A0F"/>
<path d="M439.148 549.99V496.143L505.688 456.007V510.288L439.148 549.99Z" fill="#FE4A0F"/>
<path opacity="0.82" d="M100.119 389.628V443.476C100.119 443.476 438.593 549.991 439.148 549.991C439.703 549.991 439.148 496.143 439.148 496.143L100.119 389.628Z" fill="url(#paint0_linear_0_645)"/>
<path opacity="0.22" d="M100.118 389.196L166.659 349.493L505.689 455.836L439.703 495.713L100.118 389.196Z" fill="white"/>
<path d="M234.16 359.102L300.701 319.399L534.016 392.508L468.027 432.385L234.16 359.102Z" fill="#FE4A0F"/>
<path d="M234.16 359.101V306.307L300.7 266.604V319.398L234.16 359.101Z" fill="#FE4A0F"/>
<path d="M467.753 432.21V378.362L534.293 338.227V392.507L467.753 432.21Z" fill="#FE4A0F"/>
<path d="M234.16 306.307L300.701 266.604L534.294 338.227L467.753 378.363L234.16 306.307Z" fill="#FE4A0F"/>
<path opacity="0.22" d="M234.16 306.307L300.701 266.604L534.294 338.227L467.753 378.363L234.16 306.307Z" fill="white"/>
<path opacity="0.82" d="M234.16 306.306V359.101L467.753 432.21V378.362L234.16 306.306Z" fill="url(#paint1_linear_0_645)"/>
<path d="M371.728 280.098L438.269 240.396L592.497 289.047L525.956 328.749L371.728 280.098Z" fill="#FE4A0F"/>
<path d="M371.728 280.097V226.25L438.268 187.601V240.395L371.728 280.097Z" fill="#FE4A0F"/>
<path d="M525.956 328.748V274.898L592.496 234.766V289.046L525.956 328.748Z" fill="#FE4A0F"/>
<path d="M371.728 227.304L438.269 187.601L592.497 234.766L525.956 274.898L371.728 227.304Z" fill="#FE4A0F"/>
<path opacity="0.22" d="M371.728 227.304L438.269 187.601L592.497 234.766L525.956 274.898L371.728 227.304Z" fill="white"/>
<path opacity="0.82" d="M371.728 227.303V280.098L525.956 328.749V274.898L371.728 227.303Z" fill="url(#paint2_linear_0_645)"/>
<path d="M505.942 199.873L572.483 160.171L651.496 186.199L585.509 226.076L505.942 199.873Z" fill="#FE4A0F"/>
<path d="M505.941 199.872V147.078L572.482 107.376V160.17L505.941 199.872Z" fill="#FE4A0F"/>
<path d="M584.955 225.991V172.143L651.495 132.008V186.288L584.955 225.991Z" fill="#FE4A0F"/>
<path d="M505.941 147.078L572.482 107.376L651.495 132.008L584.954 172.144L505.941 147.078Z" fill="#FE4A0F"/>
<path opacity="0.22" d="M505.941 147.078L572.482 107.376L651.495 132.008L584.954 172.144L505.941 147.078Z" fill="white"/>
<path opacity="0.82" d="M505.942 147.078V199.872L584.954 225.99V172.143L505.942 147.078Z" fill="url(#paint3_linear_0_645)"/>
<path d="M180.676 391.408C176.28 394.106 170.414 395.343 164.534 392.969C164.375 392.906 164.223 392.841 164.076 392.775C158.708 390.439 160.001 387.432 164.319 384.806L180.337 375.029C184.789 372.321 190.6 371.094 196.479 373.468C196.625 373.527 196.765 373.586 196.903 373.646C202.296 375.992 201.056 378.98 196.694 381.631L180.676 391.408ZM165.419 392.427C170.523 394.48 175.567 393.311 179.483 390.925L195.557 381.117C199.302 378.814 200.629 376.216 195.94 374.175C195.821 374.122 195.697 374.072 195.569 374.019C190.466 371.966 185.44 373.125 181.583 375.496L165.528 385.295C161.69 387.632 160.378 390.236 165.052 392.268C165.17 392.324 165.295 392.377 165.419 392.427Z" fill="white" stroke="white"/>
<path d="M210.874 406.226C208.175 407.878 204.486 408.893 200.745 407.395C200.667 407.364 200.589 407.329 200.514 407.298C197.071 405.8 198.296 403.834 200.938 402.217L210.063 396.633C212.724 395.023 216.457 394.026 220.202 395.524C220.28 395.555 220.357 395.59 220.432 395.621C223.872 397.12 222.607 399.067 220.024 400.653L210.874 406.226ZM201.524 406.934C204.661 408.186 207.702 407.223 209.898 405.874L219.083 400.279C221.289 398.927 222.513 397.325 219.635 396.073C219.572 396.045 219.51 396.02 219.448 395.995C216.292 394.733 213.307 395.664 211.051 397.045L201.888 402.65C199.713 403.961 198.439 405.594 201.34 406.856C201.399 406.881 201.458 406.909 201.524 406.934Z" fill="white" stroke="white"/>
<path d="M230.078 387.202L231.019 387.572L184.316 400.727L183.394 400.343L230.078 387.202Z" fill="white" stroke="white"/>
<path d="M160.007 383.083C155.611 385.781 149.744 387.018 143.865 384.644C143.718 384.585 143.578 384.526 143.441 384.466C138.004 382.102 139.294 379.086 143.603 376.462L159.621 366.685C164.054 363.969 169.883 362.75 175.806 365.14C175.956 365.199 176.102 365.262 176.242 365.324C181.579 367.648 180.346 370.508 176.062 373.135L175.822 373.272L174.672 372.808L174.949 372.63C178.676 370.359 179.962 367.891 175.289 365.857C175.164 365.804 175.037 365.748 174.903 365.695C169.756 363.623 164.733 364.782 160.78 367.206L152.096 372.499C156.284 371.496 159.406 371.664 163.132 373.175C163.275 373.231 163.412 373.291 163.543 373.347C168.774 375.624 167.419 378.556 163.166 381.164L160.007 383.083ZM144.809 384.068C149.934 386.13 154.9 384.984 158.817 382.6L161.92 380.696C165.649 378.422 166.958 375.817 162.288 373.786C162.169 373.733 162.045 373.683 161.92 373.63C156.754 371.549 151.601 372.801 147.906 375.06L144.8 376.942C140.983 379.285 139.706 381.852 144.429 383.909C144.55 383.965 144.678 384.015 144.809 384.068Z" fill="white" stroke="white"/>
<path d="M204.327 391.405C201.629 393.056 197.937 394.031 194.192 392.533C194.111 392.502 194.037 392.467 193.959 392.436C190.559 390.956 191.731 389.022 194.37 387.408L203.645 381.74C206.362 380.098 210.057 379.123 213.721 380.603C213.802 380.634 213.88 380.669 213.955 380.703C217.394 382.201 216.241 384.142 213.584 385.75L204.327 391.405ZM194.912 392.084C198.031 393.349 201.072 392.386 203.29 391.047L212.602 385.358C214.802 384.012 216.076 382.385 213.222 381.142C213.151 381.111 213.079 381.08 213.004 381.052C209.867 379.777 206.845 380.75 204.589 382.111L195.277 387.8C193.13 389.115 191.84 390.751 194.697 391.994C194.762 392.022 194.837 392.053 194.912 392.084Z" fill="white" stroke="white"/>
<path d="M294.423 300.244L290.927 298.982L284.02 303.708L282.733 303.26L289.678 298.53L275.408 293.395L276.302 292.763L311.848 283.083L313.406 283.631L291.803 298.377L295.298 299.639L294.423 300.244ZM277.477 293.24L290.559 297.929L310.512 284.304L277.477 293.24Z" fill="white" stroke="white"/>
<path d="M339.752 307.11C337.241 308.824 333.658 309.905 329.748 308.5C329.545 308.428 329.358 308.354 329.184 308.276C326.025 306.902 327.012 305.004 329.393 303.381L338.042 297.48C340.553 295.766 344.117 294.695 347.962 296.072C348.18 296.15 348.382 296.231 348.572 296.312C351.763 297.698 350.772 299.589 348.401 301.206L339.752 307.11ZM330.446 308.042C333.692 309.214 336.643 308.173 338.693 306.762L347.379 300.839C349.361 299.477 350.454 297.882 347.769 296.714C347.622 296.651 347.469 296.589 347.301 296.53C344.017 295.361 341.104 296.399 339.017 297.832L330.331 303.755C328.365 305.085 327.293 306.69 329.975 307.858C330.125 307.917 330.281 307.98 330.446 308.042Z" fill="white" stroke="white"/>
<path d="M365.061 302.212L366.039 302.561L320.8 316.949L319.822 316.597L365.061 302.212Z" fill="white" stroke="white"/>
<path d="M347.944 321.717C345.414 323.443 341.856 324.552 337.967 323.156C337.752 323.078 337.553 323 337.366 322.919C334.169 321.527 335.176 319.611 337.565 318L346.065 312.18C348.539 310.485 352.178 309.395 356.069 310.79C356.284 310.868 356.48 310.946 356.667 311.027C359.861 312.417 358.786 314.317 356.465 315.909L347.944 321.717ZM338.681 322.667C341.946 323.848 344.878 322.798 346.909 321.396L355.487 315.554C357.459 314.202 358.518 312.632 355.863 311.476C355.708 311.407 355.536 311.342 355.356 311.276C352.091 310.096 349.215 311.114 347.127 312.548L338.55 318.389C336.628 319.713 335.522 321.312 338.185 322.471C338.335 322.539 338.503 322.605 338.681 322.667Z" fill="white" stroke="white"/>
<path d="M316.16 307.753C312.057 310.557 306.309 311.959 300.171 309.753C299.819 309.625 299.489 309.494 299.183 309.36C294.167 307.176 295.192 304.254 299.062 301.609L313.995 291.414C318.154 288.576 323.828 287.218 329.966 289.423C330.336 289.557 330.679 289.691 331 289.832C335.985 292.003 334.985 294.898 331.093 297.555L316.16 307.753ZM301.015 309.173C306.362 311.093 311.228 309.79 314.892 307.295L329.863 297.078C333.259 294.76 334.343 292.224 330.003 290.336C329.732 290.218 329.439 290.103 329.124 289.99C323.8 288.081 318.911 289.374 315.303 291.838L300.336 302.073C296.903 304.41 295.821 306.946 300.143 308.827C300.411 308.946 300.701 309.061 301.015 309.173Z" fill="white" stroke="white"/>
<path d="M447.937 206.002C453.025 208.217 451.644 211.046 447.737 213.71C439.568 219.299 421.588 215.676 411.244 222.496L411.079 222.611L426.327 228.095L425.448 228.696L408.932 222.751L409.574 222.324C420.569 214.822 438.556 218.673 446.432 213.289C449.903 210.909 451.364 208.432 446.865 206.472C446.591 206.354 446.298 206.235 445.98 206.123C440.593 204.188 435.68 205.746 432.162 208.158L430.567 209.248L429.361 208.815L430.919 207.746C434.988 204.983 440.69 203.353 446.868 205.578C447.251 205.718 447.606 205.858 447.937 206.002Z" fill="white" stroke="white"/>
<path d="M477.723 230.833C475.193 232.559 471.61 233.619 467.718 232.223C467.516 232.148 467.326 232.073 467.151 231.999C463.992 230.625 464.946 228.73 467.341 227.095L475.972 221.203C478.483 219.489 482.085 218.418 485.932 219.795C486.15 219.873 486.35 219.954 486.54 220.035C489.715 221.415 488.743 223.312 486.353 224.942L477.723 230.833ZM468.379 231.768C471.663 232.936 474.576 231.899 476.626 230.487L485.312 224.565C487.306 223.219 488.397 221.611 485.733 220.452C485.58 220.387 485.415 220.321 485.234 220.256C481.969 219.075 479.037 220.125 476.95 221.558L468.264 227.481C466.335 228.811 465.229 230.416 467.915 231.584C468.058 231.646 468.214 231.709 468.379 231.768Z" fill="white" stroke="white"/>
<path d="M475.554 216.059L474.675 216.661L461.3 211.863L448.38 219.845C451.735 219.166 454.726 219.409 457.804 220.527C458.138 220.649 458.449 220.77 458.739 220.898C463.568 223.001 462.297 225.877 458.546 228.438L454.094 231.482C450.046 234.255 444.382 235.713 438.31 233.535C437.952 233.407 437.618 233.276 437.31 233.139C432.365 230.986 433.478 228.058 437.307 225.437L438.572 224.574L439.84 225.035L438.575 225.898C435.207 228.179 434.004 230.712 438.291 232.578C438.556 232.694 438.84 232.806 439.148 232.915C444.454 234.834 449.271 233.454 452.847 231.033L457.244 228.02C460.565 225.746 461.764 223.225 457.424 221.337C457.166 221.225 456.891 221.116 456.596 221.007C453.312 219.839 449.719 219.892 446.423 221.023L446.074 221.241L444.89 220.817L461.063 210.847L475.554 216.059Z" fill="white" stroke="white"/>
<path d="M502.994 225.938L503.969 226.29L458.749 240.663L457.774 240.314L502.994 225.938Z" fill="white" stroke="white"/>
<path d="M485.874 245.442C483.363 247.156 479.808 248.286 475.897 246.881C475.686 246.807 475.486 246.726 475.302 246.648C472.121 245.264 473.14 243.336 475.514 241.716L484.035 235.905C486.509 234.21 490.13 233.11 494.018 234.506C494.233 234.584 494.432 234.662 494.616 234.743C497.81 236.132 496.735 238.033 494.395 239.634L485.874 245.442ZM476.611 246.392C479.876 247.573 482.808 246.523 484.88 245.121L493.417 239.282C495.395 237.924 496.454 236.347 493.778 235.182C493.632 235.117 493.473 235.054 493.304 234.995C490.058 233.824 487.145 234.843 485.057 236.276L476.521 242.114C474.555 243.445 473.464 245.04 476.147 246.208C476.29 246.271 476.446 246.333 476.611 246.392Z" fill="white" stroke="white"/>
<path d="M568.923 122.559L539.534 142.636L538.266 142.178L565.879 123.338C562.627 124.188 559.237 124.11 555.9 123.157L556.723 122.587C560.536 123.69 564.381 123.282 567.715 122.129L568.923 122.559Z" fill="white" stroke="white"/>
<path d="M592.604 145.059C590.093 146.773 586.51 147.854 582.599 146.449C582.397 146.374 582.207 146.299 582.032 146.224C578.873 144.85 579.83 142.956 582.223 141.323L590.853 135.432C593.383 133.706 596.966 132.646 600.813 134.024C601.031 134.101 601.231 134.182 601.421 134.263C604.596 135.644 603.624 137.541 601.253 139.161L592.604 145.059ZM583.279 145.984C586.544 147.165 589.476 146.115 591.529 144.723L600.215 138.8C602.19 137.444 603.278 135.837 600.633 134.684C600.48 134.619 600.315 134.553 600.137 134.491C596.872 133.31 593.94 134.36 591.831 135.784L583.167 141.716C581.225 143.034 580.138 144.638 582.783 145.791C582.936 145.857 583.098 145.919 583.279 145.984Z" fill="white" stroke="white"/>
<path d="M617.871 140.165L618.849 140.517L573.651 154.899L572.672 154.55L617.871 140.165Z" fill="white" stroke="white"/>
<path d="M600.775 159.678C598.264 161.392 594.687 162.513 590.799 161.118C590.584 161.04 590.384 160.962 590.2 160.881C587.001 159.488 588.023 157.563 590.394 155.939L598.915 150.129C601.389 148.434 605.009 147.334 608.919 148.739C609.131 148.814 609.33 148.895 609.514 148.973C612.692 150.356 611.633 152.266 609.277 153.858L600.775 159.678ZM591.512 160.629C594.759 161.8 597.687 160.75 599.759 159.348L608.318 153.519C610.296 152.16 611.356 150.584 608.679 149.418C608.533 149.353 608.374 149.291 608.206 149.232C604.94 148.051 602.046 149.079 599.937 150.503L591.4 156.341C589.434 157.672 588.362 159.276 591.045 160.445C591.188 160.507 591.344 160.569 591.512 160.629Z" fill="white" stroke="white"/>
<path d="M568.973 145.708C564.87 148.512 559.159 149.914 553.025 147.708C552.66 147.577 552.321 147.443 552.006 147.306C547.011 145.132 548.058 142.206 551.919 139.567L566.852 129.373C571.011 126.534 576.666 125.167 582.801 127.372C583.171 127.506 583.514 127.64 583.835 127.781C588.823 129.952 587.82 132.847 583.91 135.514L568.973 145.708ZM553.866 147.125C559.194 149.054 564.079 147.742 567.724 145.256L582.713 135.031C586.119 132.706 587.181 130.177 582.819 128.276C582.558 128.161 582.274 128.049 581.972 127.94C576.625 126.023 571.74 127.335 568.132 129.796L553.162 140.013C549.75 142.359 548.666 144.895 552.99 146.777C553.258 146.898 553.551 147.013 553.866 147.125Z" fill="white" stroke="white"/>
</g>
<g filter="url(#filter1_d_0_645)">
<path d="M47.4473 54.3415C59.9954 47.8121 64.8746 32.3468 58.3452 19.7987C51.8158 7.25063 36.3505 2.37149 23.8024 8.90085C11.2543 15.4302 6.37518 30.8956 12.9045 43.4436C19.4339 55.9917 34.8992 60.8709 47.4473 54.3415Z" fill="#FFC1AD"/>
<path d="M55.5476 31.622C55.5476 42.6267 46.6273 51.546 35.6226 51.546C24.6194 51.546 15.6991 42.6262 15.6991 31.622C15.6991 20.6178 24.6194 11.6985 35.6226 11.6985C46.6273 11.6985 55.5476 20.6183 55.5476 31.622Z" fill="#FE4A0F"/>
<path d="M23.48 32.4189H25.0881V33.2905H23.48V35.5001H22.6187V33.2905H21.0215V32.4189H22.6187V30.1986H23.48V32.4189Z" fill="white"/>
<path d="M29.8591 31.9418C29.8591 34.8363 29.1225 35.6249 27.9088 35.6249C26.6847 35.6249 25.9584 34.8363 25.9584 31.9418C25.9584 29.0472 26.6847 28.2596 27.9088 28.2596C29.1225 28.2592 29.8591 29.0472 29.8591 31.9418ZM26.83 31.5789V32.3046C26.83 33.7885 27.0578 34.8673 27.9088 34.8673C28.7597 34.8673 28.9875 33.7885 28.9875 32.3046V31.5789C28.9875 30.0951 28.7597 29.0163 27.9088 29.0163C27.0578 29.0163 26.83 30.0956 26.83 31.5789Z" fill="white"/>
<path d="M31.9747 35.5001H30.9372V34.3796H31.9747V35.5001Z" fill="white"/>
<path d="M36.808 30.2404C36.808 30.9151 36.5488 31.5062 36.0302 31.8485C36.6838 32.1701 36.9534 32.7819 36.9534 33.5499C36.9534 34.691 36.3828 35.6249 35.003 35.6249C33.6233 35.6249 33.0527 34.691 33.0527 33.5499C33.0527 32.7819 33.3223 32.1701 33.9655 31.8485C33.4573 31.5062 33.1981 30.9151 33.1981 30.2404C33.1981 29.1513 33.8099 28.2592 35.003 28.2592C36.1962 28.2592 36.808 29.1513 36.808 30.2404ZM33.9243 33.5499C33.9243 34.3586 34.2979 34.8677 35.003 34.8677C35.7086 34.8677 36.0818 34.3591 36.0818 33.5499C36.0818 32.7412 35.7081 32.2433 35.003 32.2433C34.2975 32.2428 33.9243 32.7412 33.9243 33.5499ZM34.0485 30.2512C34.0485 31.0187 34.4217 31.4851 35.003 31.4851C35.5844 31.4851 35.9679 31.0187 35.9679 30.2512C35.9679 29.4833 35.5844 29.0168 35.003 29.0168C34.4217 29.0168 34.0485 29.4833 34.0485 30.2512Z" fill="white"/>
<path d="M41.5592 30.209C41.5592 31.0496 41.1649 31.5062 40.6361 31.8067V31.8485C41.2376 32.0768 41.6839 32.6469 41.6839 33.5911C41.6839 34.8564 40.8752 35.6244 39.7336 35.6244C38.4368 35.6244 37.7317 34.7843 37.7317 33.4875V33.4045H38.6033V33.5184C38.6033 34.4008 38.9765 34.8673 39.6712 34.8673C40.3459 34.8673 40.8129 34.4627 40.8129 33.5287C40.8129 32.5226 40.2423 32.2634 39.6408 32.2634H39.0496V31.5062H39.6614C40.2118 31.5062 40.6886 31.1016 40.6886 30.2615C40.6886 29.3792 40.232 29.0168 39.714 29.0168C39.1434 29.0168 38.7285 29.4214 38.7285 30.3032V30.3965H37.8569V30.2095C37.8569 29.0271 38.6244 28.2596 39.7032 28.2596C40.8124 28.2592 41.5592 28.9436 41.5592 30.209Z" fill="white"/>
<path d="M45.2198 30.1368C45.2198 31.5789 44.7219 32.0041 43.8921 32.0041C43.0623 32.0041 42.5644 31.5681 42.5644 30.1368C42.5644 28.6947 43.0623 28.2592 43.8921 28.2592C44.7219 28.2592 45.2198 28.6947 45.2198 30.1368ZM43.2803 30.0538V30.209C43.2803 30.9043 43.3942 31.3918 43.8921 31.3918C44.39 31.3918 44.5044 30.9043 44.5044 30.209V30.0538C44.5044 29.3585 44.39 28.871 43.8921 28.871C43.3942 28.871 43.2803 29.3585 43.2803 30.0538ZM44.1204 35.5002H43.3942L47.7309 28.3834H48.4669L44.1204 35.5002ZM49.2869 33.7576C49.2869 35.1997 48.789 35.6249 47.9592 35.6249C47.1294 35.6249 46.6315 35.1889 46.6315 33.7576C46.6315 32.3154 47.1294 31.8799 47.9592 31.8799C48.7885 31.8799 49.2869 32.315 49.2869 33.7576ZM47.3474 33.6746V33.8302C47.3474 34.525 47.4608 35.0126 47.9592 35.0126C48.4571 35.0126 48.5715 34.525 48.5715 33.8302V33.6746C48.5715 32.9793 48.4571 32.4922 47.9592 32.4922C47.4608 32.4917 47.3474 32.9793 47.3474 33.6746Z" fill="white"/>
<path d="M40.3787 112.618C54.2776 109.991 63.4155 96.5943 60.7888 82.6953C58.1621 68.7964 44.7653 59.6584 30.8664 62.2852C16.9674 64.9119 7.82952 78.3086 10.4563 92.2076C13.083 106.107 26.4797 115.244 40.3787 112.618Z" fill="#FFC1AD"/>
<path d="M55.5475 87.4519C55.5475 98.4566 46.6272 107.376 35.6225 107.376C24.6193 107.376 15.699 98.4566 15.699 87.4519C15.699 76.4478 24.6193 67.5284 35.6225 67.5284C46.6272 67.5284 55.5475 76.4478 55.5475 87.4519Z" fill="#FE4A0F"/>
<path d="M24.5484 87.4031H26.1565V88.2747H24.5484V90.4842H23.6871V88.2747H22.0899V87.4031H23.6871V85.1827H24.5484V87.4031Z" fill="white"/>
<path d="M31.2445 90.5728H32.8005V91.3299H28.703V90.5728H30.3935V85.5099H28.6922V84.9703C29.273 84.9079 30.2487 84.607 30.9125 84.2132H31.2445V90.5728Z" fill="white"/>
<path d="M34.6156 91.3297H33.5781V90.2092H34.6156V91.3297Z" fill="white"/>
<path d="M39.3658 85.0842H36.8655L36.731 87.253C36.9588 87.0247 37.3738 86.7031 37.9861 86.7031C38.92 86.7031 39.6668 87.4391 39.6668 89.006C39.6668 90.5728 38.9097 91.4542 37.6851 91.4542C36.4816 91.4542 35.6935 90.5723 35.6935 89.1199H36.5754C36.5754 90.0946 37.0629 90.7069 37.6855 90.7069C38.3185 90.7069 38.7849 90.1569 38.7849 89.0055C38.7849 88.02 38.3597 87.4701 37.7582 87.4701C37.3016 87.4701 36.9073 87.802 36.6996 88.2896L35.8904 88.1541L36.1285 84.2127H39.3653L39.3658 85.0842Z" fill="white"/>
<path d="M43.1309 85.9665C43.1309 87.4081 42.633 87.8338 41.8032 87.8338C40.9733 87.8338 40.475 87.3978 40.475 85.9665C40.475 84.5243 40.9729 84.0883 41.8032 84.0883C42.633 84.0883 43.1309 84.5243 43.1309 85.9665ZM41.1909 85.8835V86.0391C41.1909 86.7339 41.3053 87.2215 41.8032 87.2215C42.3011 87.2215 42.4155 86.7339 42.4155 86.0391V85.8835C42.4155 85.1882 42.3011 84.7006 41.8032 84.7006C41.3053 84.7006 41.1909 85.1882 41.1909 85.8835ZM42.0315 91.3298H41.3053L45.6419 84.2135H46.3785L42.0315 91.3298ZM47.1975 89.5867C47.1975 91.0288 46.6996 91.4541 45.8698 91.4541C45.0399 91.4541 44.5416 91.0185 44.5416 89.5867C44.5416 88.1446 45.0395 87.7091 45.8698 87.7091C46.6996 87.7096 47.1975 88.1446 47.1975 89.5867ZM45.2575 89.5037V89.6594C45.2575 90.3547 45.3719 90.8418 45.8698 90.8418C46.3677 90.8418 46.4821 90.3547 46.4821 89.6594V89.5037C46.4821 88.8085 46.3681 88.3209 45.8698 88.3209C45.3714 88.3209 45.2575 88.8085 45.2575 89.5037Z" fill="white"/>
<path d="M35.6234 168.894C49.7685 168.894 61.2353 157.427 61.2353 143.282C61.2353 129.137 49.7685 117.67 35.6234 117.67C21.4783 117.67 10.0115 129.137 10.0115 143.282C10.0115 157.427 21.4783 168.894 35.6234 168.894Z" fill="#FFC1AD"/>
<path d="M55.548 143.281C55.548 154.285 46.6277 163.205 35.623 163.205C24.6198 163.205 15.6995 154.285 15.6995 143.281C15.6995 132.276 24.6198 123.357 35.623 123.357C46.6277 123.357 55.548 132.276 55.548 143.281Z" fill="#FE4A0F"/>
<path d="M23.48 144.079H25.0881V144.951H23.48V147.16H22.6187V144.951H21.0215V144.079H22.6187V141.859H23.48V144.079Z" fill="white"/>
<path d="M29.8591 143.602C29.8591 146.496 29.1225 147.285 27.9088 147.285C26.6847 147.285 25.9584 146.496 25.9584 143.602C25.9584 140.707 26.6847 139.919 27.9088 139.919C29.1225 139.919 29.8591 140.707 29.8591 143.602ZM26.83 143.239V143.964C26.83 145.448 27.0578 146.527 27.9088 146.527C28.7597 146.527 28.9875 145.448 28.9875 143.964V143.239C28.9875 141.755 28.7597 140.676 27.9088 140.676C27.0578 140.676 26.83 141.755 26.83 143.239Z" fill="white"/>
<path d="M31.9747 147.16H30.9372V146.039H31.9747V147.16Z" fill="white"/>
<path d="M35.6985 146.403H37.2545V147.16H33.1565V146.403H34.8475V141.34H33.1462V140.801C33.727 140.738 34.7027 140.437 35.3665 140.043H35.6985V146.403Z" fill="white"/>
<path d="M41.6108 141.766C41.6108 143.55 39.8058 144.701 39.0069 145.926C38.924 146.05 38.8621 146.175 38.8203 146.289H41.6422V147.16H37.7725V147.026C37.7725 146.466 37.9488 145.947 38.2704 145.48C39.1208 144.235 40.7083 143.208 40.7083 141.756C40.7083 141.279 40.5001 140.708 39.743 140.708C39.0064 140.708 38.7472 141.331 38.7472 142.067V142.492H37.8653C37.8653 142.492 37.8339 142.326 37.8339 142.077C37.8339 140.552 38.7266 139.919 39.7528 139.919C40.781 139.919 41.6108 140.458 41.6108 141.766Z" fill="white"/>
<path d="M45.2198 141.797C45.2198 143.239 44.7219 143.664 43.8921 143.664C43.0623 143.664 42.5644 143.228 42.5644 141.797C42.5644 140.354 43.0623 139.919 43.8921 139.919C44.7219 139.919 45.2198 140.354 45.2198 141.797ZM43.2803 141.714V141.869C43.2803 142.564 43.3942 143.052 43.8921 143.052C44.39 143.052 44.5044 142.564 44.5044 141.869V141.714C44.5044 141.018 44.39 140.531 43.8921 140.531C43.3942 140.531 43.2803 141.018 43.2803 141.714ZM44.1204 147.16H43.3942L47.7309 140.043H48.4669L44.1204 147.16ZM49.2869 145.417C49.2869 146.859 48.789 147.284 47.9592 147.284C47.1294 147.284 46.6315 146.848 46.6315 145.417C46.6315 143.975 47.1294 143.539 47.9592 143.539C48.7885 143.54 49.2869 143.975 49.2869 145.417ZM47.3474 145.334V145.49C47.3474 146.184 47.4608 146.672 47.9592 146.672C48.4571 146.672 48.5715 146.184 48.5715 145.49V145.334C48.5715 144.639 48.4571 144.152 47.9592 144.152C47.4608 144.152 47.3474 144.639 47.3474 145.334Z" fill="white"/>
<path d="M67.3042 32.216L70.6549 26.9808L74.0042 32.216H67.3042Z" fill="#132250"/>
<path d="M67.3042 91.5087L70.6549 86.273L74.0042 91.5087H67.3042Z" fill="#132250"/>
<path d="M67.3042 150.8L70.6549 145.565L74.0042 150.8H67.3042Z" fill="#132250"/>
<path d="M364.988 18.4956C364.988 15.1827 362.302 12.4974 358.99 12.4974H88.985C85.6716 12.4974 82.9867 15.1827 82.9867 18.4956V71.847H364.988V18.4956Z" fill="url(#paint4_linear_0_645)"/>
<g opacity="0.24">
<path d="M364.488 72.3475V160.275C364.488 163.312 362.026 165.773 358.99 165.774H88.985C85.9482 165.773 83.4876 163.312 83.4876 160.275V72.3475H364.488Z" fill="white" stroke="#F0F0F0"/>
</g>
<path d="M116.501 53.4652C116.501 56.0027 115.608 58.1539 113.822 59.9205C112.036 61.6858 109.884 62.5686 107.367 62.5686H106.91C104.372 62.5686 102.221 61.6759 100.455 59.8896C98.6894 58.1033 97.8065 55.9615 97.8065 53.4652V49.9937C97.8065 47.6599 98.5872 45.6202 100.151 43.8741C100.821 43.1229 101.602 42.5037 102.496 42.0161C100.952 41.2251 99.7559 39.9057 98.903 38.0585C98.4768 37.1045 98.2637 35.9069 98.2637 34.4658V32.3956C98.2637 29.9194 98.9938 27.869 100.455 26.2442C102.079 24.4176 104.231 23.5043 106.91 23.5043H107.368C110.067 23.5043 112.229 24.4181 113.852 26.2442C115.315 27.8891 116.045 29.9391 116.045 32.3956V34.4658C116.045 36.8408 115.335 38.8098 113.913 40.3722C113.284 41.0621 112.584 41.611 111.813 42.0161C113.518 42.9712 114.837 44.4216 115.771 46.3705C116.258 47.3653 116.501 48.5736 116.501 49.9937V53.4652ZM110.929 33.9634C110.888 31.3522 110.066 29.7122 108.464 29.0444C108.098 28.8829 107.662 28.8019 107.154 28.8019C106.159 28.8019 105.347 29.0764 104.718 29.6219C104.21 30.0672 103.85 30.6393 103.637 31.3375C103.424 32.0362 103.338 32.9107 103.379 33.9634C103.439 35.6221 103.703 36.8163 104.171 37.5454C104.779 38.5162 105.773 39.0023 107.154 39.0023C108.535 39.0023 109.539 38.4862 110.169 37.4531C110.696 36.5845 110.95 35.4208 110.929 33.9634ZM110.747 50.7557C110.747 48.4818 110.229 46.9592 109.194 46.1878C108.708 45.823 108.027 45.6403 107.154 45.6403C105.632 45.6403 104.597 46.2894 104.048 47.5882C103.723 48.3807 103.562 49.4359 103.562 50.7557V52.5823C103.562 53.8408 103.947 54.8562 104.718 55.6271C105.368 56.2772 106.179 56.6219 107.154 56.6622C108.717 56.5811 109.803 55.8098 110.413 54.3485C110.635 53.8609 110.747 53.2722 110.747 52.5823V50.7557Z" fill="white"/>
<path d="M138.569 53.4652C138.569 56.0027 137.676 58.1539 135.89 59.9206C134.104 61.6858 131.962 62.5686 129.466 62.5686C126.928 62.5686 124.772 61.6813 122.996 59.9044C121.219 58.1288 120.332 55.9826 120.332 53.4652V32.6382C120.332 30.1016 121.224 27.9451 123.011 26.1681C124.797 24.3926 126.948 23.5038 129.466 23.5038C132.004 23.5038 134.155 24.3975 135.921 26.1838C137.687 27.9701 138.57 30.1213 138.57 32.6377L138.569 53.4652ZM132.602 32.5169C132.602 31.6031 132.277 30.8224 131.628 30.1723C130.978 29.5232 130.197 29.1981 129.284 29.1981C128.37 29.1981 127.593 29.5232 126.954 30.1723C126.315 30.8219 125.995 31.6031 125.995 32.5169V53.3733C125.995 54.2871 126.315 55.0688 126.954 55.718C127.593 56.3681 128.37 56.6931 129.284 56.6931C130.197 56.6931 130.978 56.3681 131.628 55.718C132.278 55.0688 132.602 54.2871 132.602 53.3733V32.5169Z" fill="white"/>
<path d="M151.016 38.0282C151.016 39.3279 150.544 40.4445 149.6 41.3769C148.655 42.3118 147.534 42.7783 146.235 42.7783C144.916 42.7783 143.789 42.3118 142.855 41.3769C141.921 40.444 141.455 39.3279 141.455 38.0282V27.1276C141.455 25.8088 141.921 24.6819 142.855 23.748C143.789 22.8141 144.916 22.3476 146.235 22.3476C147.554 22.3476 148.68 22.8195 149.614 23.7637C150.548 24.7069 151.015 25.8284 151.015 27.1272V38.0282H151.016ZM146.661 62.8128H143.282L162.772 22.4389H166.118L146.661 62.8128ZM144.409 37.9668C144.409 38.4544 144.576 38.8659 144.911 39.2003C145.245 39.5356 145.657 39.7026 146.144 39.7026C146.631 39.7026 147.042 39.5356 147.377 39.2003C147.712 38.8659 147.88 38.4544 147.88 37.9668V27.0672C147.88 26.5797 147.712 26.1682 147.377 25.8338C147.042 25.4985 146.631 25.3315 146.144 25.3315C145.657 25.3315 145.245 25.4985 144.911 25.8338C144.576 26.1682 144.409 26.5797 144.409 27.0672V37.9668ZM163.195 41.9563C164.514 41.9563 165.635 42.4277 166.56 43.3724C167.483 44.3157 167.945 45.4372 167.945 46.7359V57.6365C167.945 58.9563 167.477 60.0729 166.544 60.9867C165.61 61.8995 164.494 62.3561 163.195 62.3561C161.875 62.3561 160.748 61.8951 159.815 60.971C158.881 60.0478 158.414 58.9367 158.414 57.637V46.7364C158.414 45.4175 158.881 44.2906 159.815 43.3567C160.748 42.4238 161.875 41.9563 163.195 41.9563ZM164.839 46.676C164.839 46.1884 164.671 45.7769 164.336 45.4426C164.002 45.1082 163.591 44.9403 163.103 44.9403C162.616 44.9403 162.205 45.1082 161.871 45.4426C161.535 45.7769 161.367 46.1884 161.367 46.676V57.5766C161.367 58.0627 161.535 58.4741 161.871 58.809C162.205 59.1444 162.616 59.3113 163.103 59.3113C163.591 59.3113 164.002 59.1444 164.336 58.809C164.671 58.4746 164.839 58.0632 164.839 57.5766V46.676Z" fill="white"/>
<path d="M99.0587 119.384H101.472C102.418 119.384 103.114 120.007 103.114 120.944C103.114 121.677 102.687 122.215 102.139 122.41V122.447C102.771 122.642 103.263 123.246 103.263 124.063C103.263 125.131 102.447 125.752 101.472 125.752H99.0587V119.384ZM99.8752 120.127V122.123H101.23C101.853 122.123 102.261 121.66 102.261 121.12C102.261 120.453 101.87 120.128 101.286 120.128H99.8752V120.127ZM99.8752 122.865V125.009H101.36C101.963 125.009 102.408 124.638 102.408 123.951C102.408 123.376 101.982 122.866 101.305 122.866H99.8752V122.865Z" fill="#373737"/>
<path d="M107.672 125.752H107.096L106.994 125.185H106.939C106.669 125.668 106.243 125.864 105.76 125.864C105.027 125.864 104.554 125.474 104.554 124.388V120.87H105.315V124.331C105.315 125.009 105.593 125.185 106.001 125.185C106.485 125.185 106.911 124.693 106.911 123.849V120.87H107.673V125.752H107.672Z" fill="#373737"/>
<path d="M112.035 122.095C112.035 122.16 112.026 122.253 112.026 122.271H111.237V122.188C111.237 121.807 111.08 121.427 110.56 121.427C110.022 121.427 109.901 121.826 109.901 122.095C109.901 123.163 112.128 122.54 112.128 124.359C112.128 125.409 111.469 125.863 110.569 125.863C109.447 125.863 109 125.157 109 124.434C109 124.304 109.01 124.248 109.01 124.229H109.808V124.322C109.808 124.935 110.161 125.194 110.606 125.194C111.005 125.194 111.339 124.944 111.339 124.47C111.339 123.245 109.112 123.904 109.112 122.15C109.112 121.287 109.706 120.757 110.635 120.757C111.544 120.758 112.035 121.371 112.035 122.095Z" fill="#373737"/>
<path d="M114.189 119.95H113.428V119.041H114.189V119.95ZM114.189 125.752H113.428V120.87H114.189V125.752Z" fill="#373737"/>
<path d="M118.794 122.234V125.752H118.032V122.29C118.032 121.612 117.754 121.435 117.345 121.435C116.863 121.435 116.436 121.928 116.436 122.772V125.752H115.675V120.87H116.25L116.352 121.435H116.408C116.677 120.953 117.104 120.758 117.587 120.758C118.32 120.758 118.794 121.148 118.794 122.234Z" fill="#373737"/>
<path d="M123.648 123.051V123.534H121.003C121.013 124.676 121.346 125.185 122.071 125.185C122.553 125.185 122.897 124.768 122.897 124.09H123.648C123.648 125.185 122.998 125.864 122.052 125.864C120.837 125.864 120.204 125.121 120.204 123.311C120.204 121.557 120.817 120.758 122.042 120.758C123.11 120.758 123.648 121.417 123.648 123.051ZM121.013 122.855H122.85C122.85 121.928 122.572 121.435 122.042 121.435C121.365 121.435 121.077 121.919 121.013 122.855Z" fill="#373737"/>
<path d="M127.854 122.095C127.854 122.16 127.844 122.253 127.844 122.271H127.055V122.188C127.055 121.807 126.898 121.427 126.378 121.427C125.84 121.427 125.719 121.826 125.719 122.095C125.719 123.163 127.947 122.54 127.947 124.359C127.947 125.409 127.287 125.863 126.387 125.863C125.265 125.863 124.818 125.157 124.818 124.434C124.818 124.304 124.828 124.248 124.828 124.229H125.627V124.322C125.627 124.935 125.979 125.194 126.424 125.194C126.823 125.194 127.158 124.944 127.158 124.47C127.158 123.245 124.93 123.904 124.93 122.15C124.93 121.287 125.524 120.757 126.453 120.757C127.362 120.758 127.854 121.371 127.854 122.095Z" fill="#373737"/>
<path d="M132.124 122.095C132.124 122.16 132.114 122.253 132.114 122.271H131.325V122.188C131.325 121.807 131.168 121.427 130.648 121.427C130.11 121.427 129.99 121.826 129.99 122.095C129.99 123.163 132.217 122.54 132.217 124.359C132.217 125.409 131.558 125.863 130.658 125.863C129.535 125.863 129.089 125.157 129.089 124.434C129.089 124.304 129.098 124.248 129.098 124.229H129.897V124.322C129.897 124.935 130.25 125.194 130.694 125.194C131.093 125.194 131.427 124.944 131.427 124.47C131.427 123.245 129.2 123.904 129.2 122.15C129.2 121.287 129.794 120.757 130.723 120.757C131.632 120.758 132.124 121.371 132.124 122.095Z" fill="#373737"/>
<path d="M139.494 123.32C139.494 125.093 138.845 125.864 138.036 125.864C137.564 125.864 137.164 125.659 136.997 125.325H136.951V127.358H136.19V120.87H136.765L136.867 121.435H136.914C137.146 120.99 137.536 120.758 137.982 120.758C138.909 120.758 139.494 121.528 139.494 123.32ZM136.951 123.134V123.487C136.951 124.61 137.239 125.185 137.823 125.185C138.408 125.185 138.696 124.703 138.696 123.487V123.134C138.696 121.919 138.408 121.435 137.823 121.435C137.239 121.435 136.951 122.011 136.951 123.134Z" fill="#373737"/>
<path d="M142.809 120.833V121.621H142.558C142.076 121.621 141.649 121.909 141.649 122.772V125.752H140.888V120.87H141.463L141.566 121.51H141.622C141.742 121.138 141.984 120.758 142.448 120.758C142.65 120.758 142.809 120.833 142.809 120.833Z" fill="#373737"/>
<path d="M147.189 123.31C147.189 125.065 146.586 125.863 145.444 125.863C144.303 125.863 143.699 125.065 143.699 123.31C143.699 121.556 144.303 120.758 145.444 120.758C146.586 120.758 147.189 121.557 147.189 123.31ZM144.497 123.134V123.487C144.497 124.61 144.814 125.185 145.445 125.185C146.076 125.185 146.392 124.61 146.392 123.487V123.134C146.392 122.011 146.076 121.435 145.445 121.435C144.814 121.435 144.497 122.011 144.497 123.134Z" fill="#373737"/>
<path d="M151.524 122.679H150.736C150.736 121.835 150.578 121.435 150.03 121.435C149.427 121.435 149.157 122.011 149.157 123.134V123.488C149.157 124.61 149.418 125.185 150.03 125.185C150.577 125.185 150.773 124.75 150.773 123.943H151.524C151.524 124.963 151.107 125.864 150.03 125.864C148.879 125.864 148.36 125.065 148.36 123.311C148.36 121.557 148.888 120.758 150.03 120.758C151.089 120.758 151.524 121.435 151.524 122.679Z" fill="#373737"/>
<path d="M156.129 123.051V123.534H153.484C153.493 124.676 153.827 125.185 154.552 125.185C155.034 125.185 155.378 124.768 155.378 124.09H156.129C156.129 125.185 155.479 125.864 154.533 125.864C153.317 125.864 152.685 125.121 152.685 123.311C152.685 121.557 153.298 120.758 154.523 120.758C155.591 120.758 156.129 121.417 156.129 123.051ZM153.493 122.855H155.331C155.331 121.928 155.053 121.435 154.523 121.435C153.845 121.435 153.558 121.919 153.493 122.855Z" fill="#373737"/>
<path d="M160.335 122.095C160.335 122.16 160.325 122.253 160.325 122.271H159.536V122.188C159.536 121.807 159.379 121.427 158.859 121.427C158.32 121.427 158.2 121.826 158.2 122.095C158.2 123.163 160.427 122.54 160.427 124.359C160.427 125.409 159.768 125.863 158.868 125.863C157.745 125.863 157.299 125.157 157.299 124.434C157.299 124.304 157.308 124.248 157.308 124.229H158.107V124.322C158.107 124.935 158.459 125.194 158.905 125.194C159.303 125.194 159.638 124.944 159.638 124.47C159.638 123.245 157.411 123.904 157.411 122.15C157.411 121.287 158.005 120.757 158.933 120.757C159.843 120.758 160.335 121.371 160.335 122.095Z" fill="#373737"/>
<path d="M164.604 122.095C164.604 122.16 164.595 122.253 164.595 122.271H163.806V122.188C163.806 121.807 163.649 121.427 163.129 121.427C162.591 121.427 162.471 121.826 162.471 122.095C162.471 123.163 164.698 122.54 164.698 124.359C164.698 125.409 164.038 125.863 163.138 125.863C162.016 125.863 161.569 125.157 161.569 124.434C161.569 124.304 161.579 124.248 161.579 124.229H162.378V124.322C162.378 124.935 162.73 125.194 163.175 125.194C163.574 125.194 163.908 124.944 163.908 124.47C163.908 123.245 161.681 123.904 161.681 122.15C161.681 121.287 162.275 120.757 163.204 120.757C164.113 120.758 164.604 121.371 164.604 122.095Z" fill="#373737"/>
<path d="M171.456 122.095C171.456 122.16 171.446 122.253 171.446 122.271H170.657V122.188C170.657 121.807 170.5 121.427 169.98 121.427C169.442 121.427 169.322 121.826 169.322 122.095C169.322 123.163 171.549 122.54 171.549 124.359C171.549 125.409 170.89 125.863 169.989 125.863C168.867 125.863 168.421 125.157 168.421 124.434C168.421 124.304 168.43 124.248 168.43 124.229H169.229V124.322C169.229 124.935 169.581 125.194 170.027 125.194C170.426 125.194 170.76 124.944 170.76 124.47C170.76 123.245 168.533 123.904 168.533 122.15C168.533 121.287 169.127 120.757 170.055 120.757C170.964 120.758 171.456 121.371 171.456 122.095Z" fill="#373737"/>
<path d="M173.692 120.87H174.352V121.547H173.692V124.74C173.692 125.028 173.841 125.185 174.129 125.185H174.352V125.715C174.222 125.789 173.99 125.845 173.804 125.845C173.136 125.845 172.932 125.278 172.932 124.722V121.547H172.514V120.87H172.932L173.099 119.515H173.693V120.87H173.692Z" fill="#373737"/>
<path d="M178.51 122.122V124.86C178.51 125.093 178.641 125.185 178.771 125.185H179.067V125.715C178.984 125.762 178.807 125.826 178.566 125.826C178.167 125.826 177.888 125.585 177.795 125.223H177.749C177.499 125.622 177.071 125.863 176.561 125.863C176.078 125.863 175.279 125.668 175.279 124.49C175.279 123.143 176.328 122.855 177.748 122.855V122.224C177.748 121.76 177.6 121.435 176.978 121.435C176.403 121.435 176.226 121.835 176.226 122.206V122.317H175.474C175.465 122.261 175.465 122.197 175.465 122.114C175.465 121.222 176.115 120.758 177.034 120.758C178.018 120.758 178.51 121.259 178.51 122.122ZM177.749 123.534C176.756 123.534 176.078 123.682 176.078 124.443C176.078 124.999 176.311 125.185 176.737 125.185C177.22 125.185 177.749 124.786 177.749 123.979V123.534Z" fill="#373737"/>
<path d="M182.14 120.833V121.621H181.889C181.407 121.621 180.979 121.909 180.979 122.772V125.752H180.219V120.87H180.794L180.896 121.51H180.952C181.072 121.138 181.314 120.758 181.778 120.758C181.981 120.758 182.14 120.833 182.14 120.833Z" fill="#373737"/>
<path d="M183.968 120.87H184.628V121.547H183.968V124.74C183.968 125.028 184.117 125.185 184.405 125.185H184.628V125.715C184.498 125.789 184.266 125.845 184.08 125.845C183.412 125.845 183.208 125.278 183.208 124.722V121.547H182.79V120.87H183.208L183.374 119.515H183.969V120.87H183.968Z" fill="#373737"/>
<path d="M188.582 122.095C188.582 122.16 188.573 122.253 188.573 122.271H187.784V122.188C187.784 121.807 187.627 121.427 187.106 121.427C186.568 121.427 186.448 121.826 186.448 122.095C186.448 123.163 188.675 122.54 188.675 124.359C188.675 125.409 188.016 125.863 187.116 125.863C185.993 125.863 185.547 125.157 185.547 124.434C185.547 124.304 185.556 124.248 185.556 124.229H186.355V124.322C186.355 124.935 186.708 125.194 187.153 125.194C187.552 125.194 187.886 124.944 187.886 124.47C187.886 123.245 185.659 123.904 185.659 122.15C185.659 121.287 186.253 120.757 187.181 120.757C188.09 120.758 188.582 121.371 188.582 122.095Z" fill="#373737"/>
<path d="M194.208 119.078V119.607H193.8C193.512 119.607 193.363 119.765 193.363 120.053V120.87H194.208V121.548H193.363V125.752H192.602V121.548H192.175V120.87H192.602V120.09C192.602 119.533 192.825 118.967 193.568 118.967C193.79 118.966 194.05 119.022 194.208 119.078Z" fill="#373737"/>
<path d="M197.15 120.833V121.621H196.9C196.417 121.621 195.99 121.909 195.99 122.772V125.752H195.23V120.87H195.805L195.907 121.51H195.963C196.083 121.138 196.325 120.758 196.79 120.758C196.992 120.758 197.15 120.833 197.15 120.833Z" fill="#373737"/>
<path d="M201.53 123.31C201.53 125.065 200.928 125.863 199.786 125.863C198.645 125.863 198.041 125.065 198.041 123.31C198.041 121.556 198.645 120.758 199.786 120.758C200.928 120.758 201.53 121.557 201.53 123.31ZM198.839 123.134V123.487C198.839 124.61 199.154 125.185 199.786 125.185C200.417 125.185 200.732 124.61 200.732 123.487V123.134C200.732 122.011 200.417 121.435 199.786 121.435C199.154 121.435 198.839 122.011 198.839 123.134Z" fill="#373737"/>
<path d="M208.149 122.234V125.752H207.389V122.29C207.389 121.612 207.119 121.435 206.758 121.435C206.303 121.435 205.922 121.928 205.922 122.772V125.752H205.161V122.29C205.161 121.613 204.892 121.435 204.53 121.435C204.076 121.435 203.685 121.928 203.685 122.773V125.752H202.925V120.87H203.5L203.602 121.435H203.658C203.918 120.953 204.308 120.758 204.771 120.758C205.254 120.758 205.635 120.963 205.811 121.464C206.071 121 206.535 120.758 207 120.758C207.686 120.758 208.149 121.148 208.149 122.234Z" fill="#373737"/>
<path d="M215.298 122.122V124.86C215.298 125.093 215.429 125.185 215.558 125.185H215.855V125.715C215.771 125.762 215.595 125.826 215.354 125.826C214.955 125.826 214.676 125.585 214.583 125.223H214.536C214.287 125.622 213.859 125.863 213.348 125.863C212.866 125.863 212.067 125.668 212.067 124.49C212.067 123.143 213.116 122.855 214.536 122.855V122.224C214.536 121.76 214.387 121.435 213.766 121.435C213.191 121.435 213.013 121.835 213.013 122.206V122.317H212.262C212.253 122.261 212.253 122.197 212.253 122.114C212.253 121.222 212.903 120.758 213.822 120.758C214.806 120.758 215.298 121.259 215.298 122.122ZM214.537 123.534C213.544 123.534 212.867 123.682 212.867 124.443C212.867 124.999 213.099 125.185 213.525 125.185C214.008 125.185 214.537 124.786 214.537 123.979V123.534Z" fill="#373737"/>
<path d="M220.126 122.234V125.752H219.364V122.29C219.364 121.612 219.086 121.435 218.677 121.435C218.195 121.435 217.768 121.928 217.768 122.772V125.752H217.007V120.87H217.582L217.684 121.435H217.74C218.009 120.953 218.437 120.758 218.919 120.758C219.652 120.758 220.126 121.148 220.126 122.234Z" fill="#373737"/>
<path d="M227.588 123.31C227.588 125.065 226.985 125.863 225.844 125.863C224.702 125.863 224.099 125.065 224.099 123.31C224.099 121.556 224.702 120.758 225.844 120.758C226.985 120.758 227.588 121.557 227.588 123.31ZM224.896 123.134V123.487C224.896 124.61 225.211 125.185 225.844 125.185C226.475 125.185 226.79 124.61 226.79 123.487V123.134C226.79 122.011 226.475 121.435 225.844 121.435C225.212 121.435 224.896 122.011 224.896 123.134Z" fill="#373737"/>
<path d="M232.685 125.752H231.84L231.329 122.967C231.236 122.466 231.181 121.845 231.181 121.845H231.143C231.143 121.845 231.088 122.457 230.995 122.967L230.494 125.752H229.649L228.434 120.87H229.269L229.881 123.617C229.974 124.016 230.076 124.777 230.076 124.777H230.113C230.113 124.777 230.178 124.119 230.262 123.617L230.753 120.87H231.635L232.136 123.617C232.22 124.109 232.284 124.777 232.284 124.777H232.322C232.322 124.777 232.396 124.175 232.516 123.617L233.129 120.87H233.9L232.685 125.752Z" fill="#373737"/>
<path d="M238.061 122.234V125.752H237.299V122.29C237.299 121.612 237.021 121.435 236.612 121.435C236.13 121.435 235.703 121.928 235.703 122.772V125.752H234.942V120.87H235.517L235.619 121.435H235.675C235.944 120.953 236.371 120.758 236.854 120.758C237.587 120.758 238.061 121.148 238.061 122.234Z" fill="#373737"/>
<path d="M242.914 123.051V123.534H240.269C240.278 124.676 240.612 125.185 241.337 125.185C241.819 125.185 242.163 124.768 242.163 124.09H242.915C242.915 125.185 242.264 125.864 241.318 125.864C240.103 125.864 239.471 125.121 239.471 123.311C239.471 121.557 240.084 120.758 241.309 120.758C242.376 120.758 242.914 121.417 242.914 123.051ZM240.278 122.855H242.116C242.116 121.928 241.838 121.435 241.308 121.435C240.631 121.435 240.343 121.919 240.278 122.855Z" fill="#373737"/>
<path d="M246.257 120.833V121.621H246.006C245.524 121.621 245.097 121.909 245.097 122.772V125.752H244.336V120.87H244.911L245.014 121.51H245.07C245.19 121.138 245.432 120.758 245.896 120.758C246.099 120.758 246.257 120.833 246.257 120.833Z" fill="#373737"/>
<path d="M250.583 119.95H249.822V119.041H250.583V119.95ZM250.583 125.752H249.822V120.87H250.583V125.752Z" fill="#373737"/>
<path d="M255.187 122.234V125.752H254.426V122.29C254.426 121.612 254.147 121.435 253.739 121.435C253.257 121.435 252.829 121.928 252.829 122.772V125.752H252.069V120.87H252.644L252.746 121.435H252.802C253.071 120.953 253.498 120.758 253.98 120.758C254.714 120.758 255.187 121.148 255.187 122.234Z" fill="#373737"/>
<path d="M258.529 125.752H257.703L256.302 120.87H257.138L258.13 124.583H258.167L259.16 120.87H259.931L258.529 125.752Z" fill="#373737"/>
<path d="M264.312 123.051V123.534H261.667C261.676 124.676 262.01 125.185 262.735 125.185C263.217 125.185 263.561 124.768 263.561 124.09H264.313C264.313 125.185 263.663 125.864 262.716 125.864C261.501 125.864 260.869 125.121 260.869 123.311C260.869 121.557 261.482 120.758 262.707 120.758C263.774 120.758 264.312 121.417 264.312 123.051ZM261.676 122.855H263.514C263.514 121.928 263.236 121.435 262.706 121.435C262.029 121.435 261.741 121.919 261.676 122.855Z" fill="#373737"/>
<path d="M267.654 120.833V121.621H267.403C266.921 121.621 266.493 121.909 266.493 122.772V125.752H265.733V120.87H266.308L266.41 121.51H266.466C266.587 121.138 266.828 120.758 267.293 120.758C267.496 120.758 267.654 120.833 267.654 120.833Z" fill="#373737"/>
<path d="M269.482 120.87H270.142V121.547H269.482V124.74C269.482 125.028 269.631 125.185 269.919 125.185H270.142V125.715C270.012 125.789 269.78 125.845 269.594 125.845C268.926 125.845 268.722 125.278 268.722 124.722V121.547H268.304V120.87H268.722L268.889 119.515H269.483V120.87H269.482Z" fill="#373737"/>
<path d="M274.096 122.095C274.096 122.16 274.087 122.253 274.087 122.271H273.298V122.188C273.298 121.807 273.141 121.427 272.62 121.427C272.082 121.427 271.962 121.826 271.962 122.095C271.962 123.163 274.189 122.54 274.189 124.359C274.189 125.409 273.53 125.863 272.63 125.863C271.507 125.863 271.061 125.157 271.061 124.434C271.061 124.304 271.07 124.248 271.07 124.229H271.869V124.322C271.869 124.935 272.222 125.194 272.667 125.194C273.066 125.194 273.401 124.944 273.401 124.47C273.401 123.245 271.173 123.904 271.173 122.15C271.173 121.287 271.767 120.757 272.696 120.757C273.604 120.758 274.096 121.371 274.096 122.095Z" fill="#373737"/>
<path d="M281.105 122.679H280.317C280.317 121.835 280.158 121.435 279.61 121.435C279.007 121.435 278.738 122.011 278.738 123.134V123.488C278.738 124.61 278.999 125.185 279.61 125.185C280.158 125.185 280.353 124.75 280.353 123.943H281.105C281.105 124.963 280.688 125.864 279.61 125.864C278.46 125.864 277.94 125.065 277.94 123.311C277.94 121.557 278.469 120.758 279.61 120.758C280.669 120.758 281.105 121.435 281.105 122.679Z" fill="#373737"/>
<path d="M285.421 122.122V124.86C285.421 125.093 285.552 125.185 285.682 125.185H285.978V125.715C285.895 125.762 285.719 125.826 285.477 125.826C285.078 125.826 284.799 125.585 284.707 125.223H284.661C284.411 125.622 283.983 125.863 283.472 125.863C282.99 125.863 282.191 125.668 282.191 124.49C282.191 123.143 283.24 122.855 284.66 122.855V122.224C284.66 121.76 284.511 121.435 283.89 121.435C283.315 121.435 283.137 121.835 283.137 122.206V122.317H282.386C282.377 122.261 282.377 122.197 282.377 122.114C282.377 121.222 283.027 120.758 283.946 120.758C284.929 120.758 285.421 121.259 285.421 122.122ZM284.66 123.534C283.667 123.534 282.99 123.682 282.99 124.443C282.99 124.999 283.222 125.185 283.648 125.185C284.131 125.185 284.66 124.786 284.66 123.979V123.534Z" fill="#373737"/>
<path d="M289.914 122.095C289.914 122.16 289.905 122.253 289.905 122.271H289.116V122.188C289.116 121.807 288.959 121.427 288.438 121.427C287.9 121.427 287.78 121.826 287.78 122.095C287.78 123.163 290.007 122.54 290.007 124.359C290.007 125.409 289.348 125.863 288.448 125.863C287.325 125.863 286.879 125.157 286.879 124.434C286.879 124.304 286.888 124.248 286.888 124.229H287.687V124.322C287.687 124.935 288.04 125.194 288.485 125.194C288.884 125.194 289.218 124.944 289.218 124.47C289.218 123.245 286.991 123.904 286.991 122.15C286.991 121.287 287.585 120.757 288.513 120.757C289.423 120.758 289.914 121.371 289.914 122.095Z" fill="#373737"/>
<path d="M292.161 121.38H292.217C292.467 120.943 292.83 120.758 293.312 120.758C294.045 120.758 294.519 121.148 294.519 122.234V125.751H293.757V122.29C293.757 121.612 293.479 121.435 293.07 121.435C292.588 121.435 292.161 121.928 292.161 122.772V125.752H291.4V119.041H292.161V121.38Z" fill="#373737"/>
<path d="M301.982 123.31C301.982 125.065 301.379 125.863 300.237 125.863C299.095 125.863 298.492 125.065 298.492 123.31C298.492 121.556 299.095 120.758 300.237 120.758C301.379 120.758 301.982 121.557 301.982 123.31ZM299.289 123.134V123.487C299.289 124.61 299.606 125.185 300.237 125.185C300.868 125.185 301.183 124.61 301.183 123.487V123.134C301.183 122.011 300.867 121.435 300.237 121.435C299.606 121.435 299.289 122.011 299.289 123.134Z" fill="#373737"/>
<path d="M306.494 122.234V125.752H305.731V122.29C305.731 121.612 305.453 121.435 305.045 121.435C304.562 121.435 304.135 121.928 304.135 122.772V125.752H303.375V120.87H303.95L304.052 121.435H304.108C304.377 120.953 304.804 120.758 305.286 120.758C306.02 120.758 306.494 121.148 306.494 122.234Z" fill="#373737"/>
<path d="M313.957 123.32C313.957 125.093 313.307 125.864 312.499 125.864C312.026 125.864 311.627 125.659 311.46 125.325H311.413V127.358H310.652V120.87H311.227L311.329 121.435H311.376C311.608 120.99 311.998 120.758 312.444 120.758C313.372 120.758 313.957 121.528 313.957 123.32ZM311.413 123.134V123.487C311.413 124.61 311.702 125.185 312.286 125.185C312.87 125.185 313.159 124.703 313.159 123.487V123.134C313.159 121.919 312.87 121.435 312.286 121.435C311.702 121.435 311.413 122.011 311.413 123.134Z" fill="#373737"/>
<path d="M317.27 120.833V121.621H317.02C316.537 121.621 316.11 121.909 316.11 122.772V125.752H315.35V120.87H315.925L316.027 121.51H316.083C316.203 121.138 316.445 120.758 316.909 120.758C317.112 120.758 317.27 120.833 317.27 120.833Z" fill="#373737"/>
<path d="M321.652 123.31C321.652 125.065 321.049 125.863 319.908 125.863C318.766 125.863 318.163 125.065 318.163 123.31C318.163 121.556 318.766 120.758 319.908 120.758C321.049 120.758 321.652 121.557 321.652 123.31ZM318.96 123.134V123.487C318.96 124.61 319.275 125.185 319.908 125.185C320.539 125.185 320.854 124.61 320.854 123.487V123.134C320.854 122.011 320.539 121.435 319.908 121.435C319.275 121.435 318.96 122.011 318.96 123.134Z" fill="#373737"/>
<path d="M326.349 123.32C326.349 125.093 325.699 125.864 324.892 125.864C324.419 125.864 324.019 125.659 323.852 125.325H323.806V127.358H323.045V120.87H323.62L323.723 121.435H323.769C324.001 120.99 324.39 120.758 324.837 120.758C325.764 120.758 326.349 121.528 326.349 123.32ZM323.806 123.134V123.487C323.806 124.61 324.094 125.185 324.678 125.185C325.262 125.185 325.551 124.703 325.551 123.487V123.134C325.551 121.919 325.262 121.435 324.678 121.435C324.094 121.435 323.806 122.011 323.806 123.134Z" fill="#373737"/>
<path d="M331.019 123.051V123.534H328.374C328.383 124.676 328.716 125.185 329.441 125.185C329.923 125.185 330.267 124.768 330.267 124.09H331.019C331.019 125.185 330.369 125.864 329.422 125.864C328.207 125.864 327.575 125.121 327.575 123.311C327.575 121.557 328.188 120.758 329.413 120.758C330.481 120.758 331.019 121.417 331.019 123.051ZM328.383 122.855H330.221C330.221 121.928 329.942 121.435 329.413 121.435C328.736 121.435 328.447 121.919 328.383 122.855Z" fill="#373737"/>
<path d="M334.36 120.833V121.621H334.109C333.627 121.621 333.2 121.909 333.2 122.772V125.752H332.439V120.87H333.014L333.116 121.51H333.172C333.292 121.138 333.534 120.758 333.998 120.758C334.202 120.758 334.36 120.833 334.36 120.833Z" fill="#373737"/>
<path d="M336.189 120.87H336.848V121.547H336.189V124.74C336.189 125.028 336.338 125.185 336.625 125.185H336.848V125.715C336.719 125.789 336.486 125.845 336.301 125.845C335.633 125.845 335.428 125.278 335.428 124.722V121.547H335.01V120.87H335.428L335.595 119.515H336.189V120.87Z" fill="#373737"/>
<path d="M339.939 125.501C339.651 126.568 339.216 127.441 338.361 127.441C338.148 127.441 337.971 127.422 337.813 127.367V126.838H338.082C338.491 126.838 338.871 126.588 339.048 125.752L337.554 120.87H338.39L339.466 124.656H339.503L340.412 120.87H341.184L339.939 125.501Z" fill="#373737"/>
<path d="M99.6797 131.091H98.9191V130.181H99.6797V131.091ZM99.6797 136.892H98.9191V132.009H99.6797V136.892Z" fill="#373737"/>
<path d="M104.284 133.374V136.892H103.522V133.43C103.522 132.753 103.244 132.575 102.835 132.575C102.353 132.575 101.926 133.068 101.926 133.912V136.892H101.165V132.009H101.74L101.843 132.575H101.899C102.168 132.093 102.595 131.897 103.077 131.897C103.811 131.898 104.284 132.288 104.284 133.374Z" fill="#373737"/>
<path d="M111.432 133.262V136C111.432 136.232 111.563 136.325 111.693 136.325H111.989V136.855C111.906 136.902 111.73 136.966 111.488 136.966C111.09 136.966 110.811 136.725 110.718 136.364H110.671C110.421 136.762 109.994 137.004 109.483 137.004C109.001 137.004 108.202 136.809 108.202 135.63C108.202 134.284 109.251 133.995 110.671 133.995V133.364C110.671 132.9 110.522 132.575 109.9 132.575C109.325 132.575 109.148 132.975 109.148 133.347V133.458H108.397C108.388 133.402 108.388 133.337 108.388 133.254C108.388 132.362 109.038 131.898 109.956 131.898C110.94 131.898 111.432 132.399 111.432 133.262ZM110.671 134.674C109.678 134.674 109.001 134.822 109.001 135.583C109.001 136.139 109.233 136.325 109.659 136.325C110.142 136.325 110.671 135.926 110.671 135.119V134.674Z" fill="#373737"/>
<path d="M116.398 136.325L116.296 136.892H115.721V130.181H116.482V132.474H116.528C116.695 132.112 117.095 131.898 117.568 131.898C118.376 131.898 119.025 132.668 119.025 134.442C119.025 136.232 118.44 137.003 117.513 137.003C117.067 137.003 116.678 136.771 116.446 136.325H116.398V136.325ZM118.227 134.274C118.227 133.059 117.939 132.575 117.354 132.575C116.77 132.575 116.482 133.161 116.482 134.311V134.628C116.482 135.751 116.77 136.326 117.354 136.326C117.939 136.326 118.227 135.843 118.227 134.628V134.274Z" fill="#373737"/>
<path d="M123.537 136.892H122.961L122.859 136.325H122.804C122.534 136.808 122.108 137.004 121.625 137.004C120.892 137.004 120.419 136.613 120.419 135.528V132.01H121.179V135.472C121.179 136.149 121.458 136.325 121.866 136.325C122.349 136.325 122.776 135.834 122.776 134.99V132.01H123.538V136.892H123.537Z" fill="#373737"/>
<path d="M127.9 133.235C127.9 133.3 127.891 133.393 127.891 133.411H127.102V133.327C127.102 132.946 126.944 132.567 126.424 132.567C125.886 132.567 125.766 132.965 125.766 133.235C125.766 134.302 127.993 133.68 127.993 135.499C127.993 136.548 127.334 137.003 126.434 137.003C125.311 137.003 124.865 136.297 124.865 135.573C124.865 135.444 124.874 135.388 124.874 135.368H125.673V135.461C125.673 136.074 126.026 136.334 126.471 136.334C126.87 136.334 127.204 136.084 127.204 135.61C127.204 134.385 124.977 135.043 124.977 133.29C124.977 132.427 125.571 131.897 126.5 131.897C127.408 131.898 127.9 132.511 127.9 133.235Z" fill="#373737"/>
<path d="M130.054 131.091H129.293V130.181H130.054V131.091ZM130.054 136.892H129.293V132.009H130.054V136.892Z" fill="#373737"/>
<path d="M134.658 133.374V136.892H133.896V133.43C133.896 132.753 133.618 132.575 133.209 132.575C132.727 132.575 132.3 133.068 132.3 133.912V136.892H131.539V132.009H132.114L132.217 132.575H132.272C132.542 132.093 132.969 131.897 133.451 131.897C134.185 131.898 134.658 132.288 134.658 133.374Z" fill="#373737"/>
<path d="M139.513 134.191V134.674H136.867C136.877 135.816 137.21 136.325 137.935 136.325C138.418 136.325 138.761 135.908 138.761 135.23H139.513C139.513 136.325 138.862 137.004 137.916 137.004C136.701 137.004 136.069 136.261 136.069 134.451C136.069 132.697 136.681 131.898 137.906 131.898C138.975 131.898 139.513 132.558 139.513 134.191ZM136.877 133.995H138.715C138.715 133.068 138.437 132.575 137.907 132.575C137.229 132.575 136.942 133.058 136.877 133.995Z" fill="#373737"/>
<path d="M143.719 133.235C143.719 133.3 143.709 133.393 143.709 133.411H142.92V133.327C142.92 132.946 142.763 132.567 142.243 132.567C141.704 132.567 141.584 132.965 141.584 133.235C141.584 134.302 143.811 133.68 143.811 135.499C143.811 136.548 143.152 137.003 142.252 137.003C141.129 137.003 140.683 136.297 140.683 135.573C140.683 135.444 140.692 135.388 140.692 135.368H141.491V135.461C141.491 136.074 141.844 136.334 142.289 136.334C142.688 136.334 143.022 136.084 143.022 135.61C143.022 134.385 140.795 135.043 140.795 133.29C140.795 132.427 141.389 131.897 142.318 131.897C143.227 131.898 143.719 132.511 143.719 133.235Z" fill="#373737"/>
<path d="M147.988 133.235C147.988 133.3 147.979 133.393 147.979 133.411H147.19V133.327C147.19 132.946 147.033 132.567 146.513 132.567C145.975 132.567 145.854 132.965 145.854 133.235C145.854 134.302 148.082 133.68 148.082 135.499C148.082 136.548 147.422 137.003 146.522 137.003C145.4 137.003 144.953 136.297 144.953 135.573C144.953 135.444 144.963 135.388 144.963 135.368H145.762V135.461C145.762 136.074 146.114 136.334 146.559 136.334C146.958 136.334 147.292 136.084 147.292 135.61C147.292 134.385 145.065 135.043 145.065 133.29C145.065 132.427 145.659 131.897 146.587 131.897C147.497 131.898 147.988 132.511 147.988 133.235Z" fill="#373737"/>
<path d="M150.439 136.892H149.511V135.889H150.439V136.892Z" fill="#373737"/>
<path d="M155.544 136.892H154.728V130.524H155.544V136.892Z" fill="#373737"/>
<path d="M160.335 133.374V136.892H159.573V133.43C159.573 132.753 159.294 132.575 158.886 132.575C158.404 132.575 157.977 133.068 157.977 133.912V136.892H157.216V132.009H157.791L157.894 132.575H157.95C158.219 132.093 158.646 131.897 159.128 131.897C159.861 131.898 160.335 132.288 160.335 133.374Z" fill="#373737"/>
<path d="M164.854 133.82H164.066C164.066 132.975 163.908 132.575 163.36 132.575C162.757 132.575 162.488 133.151 162.488 134.274V134.628C162.488 135.751 162.748 136.326 163.36 136.326C163.908 136.326 164.103 135.89 164.103 135.083H164.854C164.854 136.103 164.437 137.004 163.36 137.004C162.209 137.004 161.69 136.205 161.69 134.451C161.69 132.698 162.219 131.899 163.36 131.899C164.419 131.898 164.854 132.575 164.854 133.82Z" fill="#373737"/>
<path d="M169.487 134.451C169.487 136.205 168.884 137.004 167.743 137.004C166.601 137.004 165.997 136.205 165.997 134.451C165.997 132.697 166.601 131.898 167.743 131.898C168.884 131.898 169.487 132.697 169.487 134.451ZM166.795 134.274V134.628C166.795 135.751 167.111 136.326 167.743 136.326C168.374 136.326 168.689 135.751 168.689 134.628V134.274C168.689 133.152 168.374 132.575 167.743 132.575C167.111 132.575 166.795 133.151 166.795 134.274Z" fill="#373737"/>
<path d="M176.105 133.374V136.892H175.345V133.43C175.345 132.753 175.076 132.575 174.714 132.575C174.259 132.575 173.878 133.068 173.878 133.912V136.892H173.118V133.43C173.118 132.753 172.848 132.575 172.487 132.575C172.032 132.575 171.642 133.068 171.642 133.912V136.892H170.881V132.009H171.456L171.558 132.575H171.614C171.873 132.093 172.264 131.897 172.727 131.897C173.21 131.897 173.591 132.102 173.768 132.604C174.027 132.139 174.491 131.897 174.956 131.897C175.642 131.898 176.105 132.288 176.105 133.374Z" fill="#373737"/>
<path d="M180.961 134.191V134.674H178.316C178.326 135.816 178.659 136.325 179.384 136.325C179.866 136.325 180.21 135.908 180.21 135.23H180.961C180.961 136.325 180.311 137.004 179.365 137.004C178.15 137.004 177.518 136.261 177.518 134.451C177.518 132.697 178.131 131.898 179.356 131.898C180.423 131.898 180.961 132.558 180.961 134.191ZM178.326 133.995H180.163C180.163 133.068 179.885 132.575 179.355 132.575C178.678 132.575 178.39 133.058 178.326 133.995Z" fill="#373737"/>
<path d="M185.63 131.091H184.869V130.181H185.63V131.091ZM185.63 136.892H184.869V132.009H185.63V136.892Z" fill="#373737"/>
<path d="M189.9 133.235C189.9 133.3 189.891 133.393 189.891 133.411H189.102V133.327C189.102 132.946 188.944 132.567 188.425 132.567C187.886 132.567 187.766 132.965 187.766 133.235C187.766 134.302 189.993 133.68 189.993 135.499C189.993 136.548 189.334 137.003 188.434 137.003C187.311 137.003 186.865 136.297 186.865 135.573C186.865 135.444 186.874 135.388 186.874 135.368H187.673V135.461C187.673 136.074 188.026 136.334 188.471 136.334C188.869 136.334 189.204 136.084 189.204 135.61C189.204 134.385 186.977 135.043 186.977 133.29C186.977 132.427 187.571 131.897 188.5 131.897C189.408 131.898 189.9 132.511 189.9 133.235Z" fill="#373737"/>
<path d="M194.727 132.52H194.783C195.033 132.083 195.396 131.898 195.878 131.898C196.611 131.898 197.085 132.288 197.085 133.374V136.891H196.323V133.43C196.323 132.753 196.045 132.575 195.636 132.575C195.154 132.575 194.727 133.067 194.727 133.912V136.891H193.966V130.181H194.727V132.52H194.727Z" fill="#373737"/>
<path d="M199.332 131.091H198.571V130.181H199.332V131.091ZM199.332 136.892H198.571V132.009H199.332V136.892Z" fill="#373737"/>
<path d="M204.307 131.221C204.307 131.805 204.001 132.26 203.49 132.391C203.759 132.668 203.927 133.058 203.927 133.541C203.927 134.553 203.314 135.175 202.368 135.184H201.857C201.607 135.184 201.412 135.378 201.412 135.621C201.412 135.862 201.615 136.056 201.857 136.056H203.249C203.954 136.056 204.399 136.576 204.399 137.198C204.399 137.968 203.898 138.581 202.971 138.581H201.587C200.788 138.581 200.38 138.06 200.38 137.42C200.38 136.947 200.622 136.529 201.012 136.381C200.761 136.224 200.613 135.935 200.613 135.647C200.613 135.248 200.891 134.951 201.3 134.803C200.947 134.515 200.734 134.088 200.734 133.54C200.734 132.52 201.336 131.897 202.33 131.897C202.58 131.897 202.832 131.962 203.035 132.073C203.472 131.843 203.592 131.526 203.638 131.22L204.307 131.221ZM201.708 136.78C201.318 136.78 201.142 137.031 201.142 137.346C201.142 137.662 201.328 137.921 201.708 137.921H203.054C203.379 137.921 203.629 137.662 203.629 137.346C203.629 137.031 203.443 136.78 203.054 136.78H201.708ZM201.495 133.541C201.495 134.191 201.783 134.553 202.321 134.553C202.859 134.553 203.157 134.163 203.157 133.541C203.157 132.892 202.859 132.529 202.321 132.529C201.783 132.529 201.495 132.919 201.495 133.541Z" fill="#373737"/>
<path d="M206.275 132.52H206.331C206.581 132.083 206.944 131.898 207.427 131.898C208.16 131.898 208.634 132.288 208.634 133.374V136.891H207.872V133.43C207.872 132.753 207.593 132.575 207.185 132.575C206.702 132.575 206.275 133.067 206.275 133.912V136.891H205.515V130.181H206.275V132.52Z" fill="#373737"/>
<path d="M213.488 134.191V134.674H210.843C210.852 135.816 211.186 136.325 211.911 136.325C212.393 136.325 212.737 135.908 212.737 135.23H213.488C213.488 136.325 212.838 137.004 211.892 137.004C210.676 137.004 210.044 136.261 210.044 134.451C210.044 132.697 210.657 131.898 211.882 131.898C212.95 131.898 213.488 132.558 213.488 134.191ZM210.852 133.995H212.69C212.69 133.068 212.412 132.575 211.882 132.575C211.205 132.575 210.917 133.058 210.852 133.995Z" fill="#373737"/>
<path d="M216.83 131.973V132.761H216.579C216.097 132.761 215.67 133.049 215.67 133.912V136.891H214.909V132.009H215.484L215.586 132.649H215.642C215.762 132.278 216.004 131.897 216.468 131.897C216.671 131.898 216.83 131.973 216.83 131.973Z" fill="#373737"/>
<path d="M221.239 132.01H221.898V132.687H221.239V135.88C221.239 136.168 221.387 136.326 221.676 136.326H221.899V136.855C221.769 136.929 221.537 136.985 221.351 136.985C220.683 136.985 220.479 136.418 220.479 135.862V132.688H220.061V132.01H220.479L220.646 130.656H221.24V132.01H221.239Z" fill="#373737"/>
<path d="M223.829 132.52H223.885C224.135 132.083 224.499 131.898 224.98 131.898C225.714 131.898 226.187 132.288 226.187 133.374V136.891H225.426V133.43C225.426 132.753 225.147 132.575 224.739 132.575C224.257 132.575 223.829 133.067 223.829 133.912V136.891H223.069V130.181H223.829V132.52Z" fill="#373737"/>
<path d="M230.754 133.262V136C230.754 136.232 230.885 136.325 231.015 136.325H231.311V136.855C231.228 136.902 231.052 136.966 230.81 136.966C230.411 136.966 230.133 136.725 230.04 136.364H229.994C229.744 136.762 229.316 137.004 228.805 137.004C228.323 137.004 227.524 136.809 227.524 135.63C227.524 134.284 228.573 133.995 229.993 133.995V133.364C229.993 132.9 229.844 132.575 229.223 132.575C228.648 132.575 228.47 132.975 228.47 133.347V133.458H227.719C227.71 133.402 227.71 133.337 227.71 133.254C227.71 132.362 228.36 131.898 229.279 131.898C230.262 131.898 230.754 132.399 230.754 133.262ZM229.993 134.674C229 134.674 228.323 134.822 228.323 135.583C228.323 136.139 228.555 136.325 228.981 136.325C229.464 136.325 229.993 135.926 229.993 135.119V134.674Z" fill="#373737"/>
<path d="M235.581 133.374V136.892H234.819V133.43C234.819 132.753 234.541 132.575 234.132 132.575C233.65 132.575 233.223 133.068 233.223 133.912V136.892H232.463V132.009H233.037L233.14 132.575H233.196C233.465 132.093 233.892 131.897 234.374 131.897C235.108 131.898 235.581 132.288 235.581 133.374Z" fill="#373737"/>
<path d="M243.045 134.451C243.045 136.205 242.442 137.004 241.3 137.004C240.159 137.004 239.555 136.205 239.555 134.451C239.555 132.697 240.159 131.898 241.3 131.898C242.442 131.898 243.045 132.697 243.045 134.451ZM240.353 134.274V134.628C240.353 135.751 240.669 136.326 241.3 136.326C241.931 136.326 242.247 135.751 242.247 134.628V134.274C242.247 133.152 241.931 132.575 241.3 132.575C240.669 132.575 240.353 133.151 240.353 134.274Z" fill="#373737"/>
<path d="M247.557 136.892H246.981L246.879 136.325H246.824C246.555 136.808 246.127 137.004 245.644 137.004C244.911 137.004 244.438 136.613 244.438 135.528V132.01H245.199V135.472C245.199 136.149 245.477 136.325 245.886 136.325C246.369 136.325 246.795 135.834 246.795 134.99V132.01H247.557V136.892Z" fill="#373737"/>
<path d="M249.887 132.01H250.546V132.687H249.887V135.88C249.887 136.168 250.035 136.326 250.324 136.326H250.546V136.855C250.416 136.929 250.184 136.985 249.999 136.985C249.331 136.985 249.126 136.418 249.126 135.862V132.688H248.708V132.01H249.126L249.293 130.656H249.887L249.887 132.01Z" fill="#373737"/>
<path d="M254.657 133.82H253.869C253.869 132.975 253.711 132.575 253.163 132.575C252.559 132.575 252.29 133.151 252.29 134.274V134.628C252.29 135.751 252.551 136.326 253.163 136.326C253.71 136.326 253.906 135.89 253.906 135.083H254.657C254.657 136.103 254.24 137.004 253.163 137.004C252.012 137.004 251.492 136.205 251.492 134.451C251.492 132.698 252.021 131.899 253.163 131.899C254.221 131.898 254.657 132.575 254.657 133.82Z" fill="#373737"/>
<path d="M259.29 134.451C259.29 136.205 258.686 137.004 257.545 137.004C256.403 137.004 255.799 136.205 255.799 134.451C255.799 132.697 256.403 131.898 257.545 131.898C258.686 131.898 259.29 132.697 259.29 134.451ZM256.597 134.274V134.628C256.597 135.751 256.914 136.326 257.545 136.326C258.176 136.326 258.491 135.751 258.491 134.628V134.274C258.491 133.152 258.176 132.575 257.545 132.575C256.914 132.575 256.597 133.151 256.597 134.274Z" fill="#373737"/>
<path d="M265.908 133.374V136.892H265.147V133.43C265.147 132.753 264.878 132.575 264.516 132.575C264.061 132.575 263.68 133.068 263.68 133.912V136.892H262.92V133.43C262.92 132.753 262.651 132.575 262.289 132.575C261.834 132.575 261.444 133.068 261.444 133.912V136.892H260.683V132.009H261.258L261.36 132.575H261.416C261.676 132.093 262.066 131.897 262.529 131.897C263.013 131.897 263.393 132.102 263.57 132.604C263.83 132.139 264.294 131.897 264.758 131.897C265.444 131.898 265.908 132.288 265.908 133.374Z" fill="#373737"/>
<path d="M270.763 134.191V134.674H268.118C268.128 135.816 268.461 136.325 269.186 136.325C269.668 136.325 270.013 135.908 270.013 135.23H270.764C270.764 136.325 270.114 137.004 269.167 137.004C267.952 137.004 267.32 136.261 267.32 134.451C267.32 132.697 267.933 131.898 269.158 131.898C270.225 131.898 270.763 132.558 270.763 134.191ZM268.128 133.995H269.965C269.965 133.068 269.687 132.575 269.157 132.575C268.48 132.575 268.192 133.058 268.128 133.995Z" fill="#373737"/>
<path d="M277.707 133.82H276.918C276.918 132.975 276.76 132.575 276.212 132.575C275.609 132.575 275.34 133.151 275.34 134.274V134.628C275.34 135.751 275.601 136.326 276.212 136.326C276.76 136.326 276.955 135.89 276.955 135.083H277.707C277.707 136.103 277.29 137.004 276.212 137.004C275.061 137.004 274.542 136.205 274.542 134.451C274.542 132.698 275.071 131.899 276.212 131.899C277.271 131.898 277.707 132.575 277.707 133.82Z" fill="#373737"/>
<path d="M282.023 133.262V136C282.023 136.232 282.154 136.325 282.284 136.325H282.581V136.855C282.497 136.902 282.321 136.966 282.079 136.966C281.681 136.966 281.402 136.725 281.309 136.364H281.262C281.012 136.762 280.585 137.004 280.074 137.004C279.592 137.004 278.793 136.809 278.793 135.63C278.793 134.284 279.842 133.995 281.262 133.995V133.364C281.262 132.9 281.113 132.575 280.491 132.575C279.916 132.575 279.739 132.975 279.739 133.347V133.458H278.988C278.978 133.402 278.978 133.337 278.978 133.254C278.978 132.362 279.629 131.898 280.547 131.898C281.532 131.898 282.023 132.399 282.023 133.262ZM281.263 134.674C280.27 134.674 279.592 134.822 279.592 135.583C279.592 136.139 279.824 136.325 280.251 136.325C280.734 136.325 281.263 135.926 281.263 135.119V134.674Z" fill="#373737"/>
<path d="M284.4 136.892H283.64V130.181H284.4V136.892Z" fill="#373737"/>
<path d="M286.554 136.892H285.793V130.181H286.554V136.892Z" fill="#373737"/>
<path d="M291.316 134.191V134.674H288.671C288.68 135.816 289.013 136.325 289.739 136.325C290.221 136.325 290.565 135.908 290.565 135.23H291.316C291.316 136.325 290.666 137.004 289.72 137.004C288.504 137.004 287.872 136.261 287.872 134.451C287.872 132.697 288.485 131.898 289.71 131.898C290.778 131.898 291.316 132.558 291.316 134.191ZM288.68 133.995H290.518C290.518 133.068 290.24 132.575 289.71 132.575C289.033 132.575 288.744 133.058 288.68 133.995Z" fill="#373737"/>
<path d="M295.856 136.892H295.28L295.177 136.325H295.131C294.899 136.771 294.51 137.004 294.065 137.004C293.136 137.004 292.552 136.232 292.552 134.442C292.552 132.668 293.202 131.898 294.009 131.898C294.483 131.898 294.881 132.112 295.048 132.474H295.095V130.181H295.856V136.892H295.856ZM293.349 134.274V134.628C293.349 135.843 293.637 136.325 294.221 136.325C294.807 136.325 295.094 135.75 295.094 134.628V134.311C295.094 133.161 294.807 132.575 294.221 132.575C293.637 132.575 293.349 133.058 293.349 134.274Z" fill="#373737"/>
<path d="M300.218 131.675H300.589V132.677H299.661V131.758L300.107 130.524H300.589L300.218 131.675ZM301.397 131.675H301.767V132.677H300.84V131.758L301.285 130.524H301.767L301.397 131.675Z" fill="#373737"/>
<path d="M303.922 134.265V136.892H303.105V130.524H305.379C306.633 130.524 307.281 131.277 307.281 132.381C307.281 133.504 306.558 134.265 305.379 134.265H303.922ZM303.922 131.267V133.523H305.352C306.001 133.523 306.428 133.068 306.428 132.381C306.428 131.694 306.047 131.267 305.352 131.267H303.922Z" fill="#373737"/>
<path d="M310.476 131.973V132.761H310.225C309.743 132.761 309.315 133.049 309.315 133.912V136.891H308.555V132.009H309.13L309.232 132.649H309.288C309.409 132.278 309.65 131.897 310.115 131.897C310.317 131.898 310.476 131.973 310.476 131.973Z" fill="#373737"/>
<path d="M314.857 134.451C314.857 136.205 314.254 137.004 313.112 137.004C311.971 137.004 311.367 136.205 311.367 134.451C311.367 132.697 311.971 131.898 313.112 131.898C314.254 131.898 314.857 132.697 314.857 134.451ZM312.165 134.274V134.628C312.165 135.751 312.481 136.326 313.112 136.326C313.743 136.326 314.059 135.751 314.059 134.628V134.274C314.059 133.152 313.743 132.575 313.112 132.575C312.481 132.575 312.165 133.151 312.165 134.274Z" fill="#373737"/>
<path d="M317.81 130.218V130.747H317.401C317.113 130.747 316.964 130.905 316.964 131.193V132.01H317.809V132.687H316.964V136.892H316.204V132.687H315.777V132.01H316.204V131.23C316.204 130.673 316.426 130.106 317.169 130.106C317.392 130.106 317.651 130.162 317.81 130.218Z" fill="#373737"/>
<path d="M319.499 131.091H318.738V130.181H319.499V131.091ZM319.499 136.892H318.738V132.009H319.499V136.892Z" fill="#373737"/>
<path d="M321.736 132.01H322.395V132.687H321.736V135.88C321.736 136.168 321.884 136.326 322.173 136.326H322.395V136.855C322.265 136.929 322.033 136.985 321.848 136.985C321.18 136.985 320.975 136.418 320.975 135.862V132.688H320.557V132.01H320.975L321.141 130.656H321.736V132.01Z" fill="#373737"/>
<path d="M324.159 131.443L323.714 132.677H323.231L323.602 131.526H323.231V130.524H324.159V131.443ZM325.338 131.443L324.893 132.677H324.41L324.781 131.526H324.41V130.524H325.338V131.443Z" fill="#373737"/>
<path d="M327.528 136.808L327.082 138.043H326.6L326.971 136.892H326.6V135.889H327.528V136.808Z" fill="#373737"/>
<path d="M103.922 144.847C103.922 147.055 102.975 148.142 101.416 148.142C99.8564 148.142 98.9097 147.056 98.9097 144.847C98.9097 142.637 99.8559 141.552 101.416 141.552C102.975 141.552 103.922 142.638 103.922 144.847ZM99.7631 144.615V145.079C99.7631 146.629 100.395 147.389 101.415 147.389C102.437 147.389 103.068 146.629 103.068 145.079V144.615C103.068 143.065 102.437 142.303 101.415 142.303C100.395 142.303 99.7631 143.065 99.7631 144.615Z" fill="#373737"/>
<path d="M108.518 148.03H107.942L107.84 147.464H107.785C107.515 147.947 107.088 148.142 106.605 148.142C105.872 148.142 105.399 147.752 105.399 146.666V143.149H106.16V146.61C106.16 147.288 106.438 147.464 106.847 147.464C107.33 147.464 107.756 146.973 107.756 146.128V143.149H108.518V148.03Z" fill="#373737"/>
<path d="M110.848 143.149H111.507V143.826H110.848V147.02C110.848 147.308 110.996 147.465 111.285 147.465H111.507V147.995C111.377 148.068 111.145 148.124 110.959 148.124C110.292 148.124 110.087 147.558 110.087 147.002V143.827H109.669V143.149H110.087L110.254 141.794H110.848V143.149H110.848Z" fill="#373737"/>
<path d="M115.619 144.958H114.831C114.831 144.114 114.673 143.714 114.125 143.714C113.521 143.714 113.252 144.29 113.252 145.413V145.767C113.252 146.889 113.513 147.465 114.125 147.465C114.672 147.465 114.867 147.029 114.867 146.222H115.619C115.619 147.242 115.202 148.143 114.125 148.143C112.974 148.143 112.454 147.345 112.454 145.59C112.454 143.837 112.983 143.038 114.125 143.038C115.183 143.037 115.619 143.714 115.619 144.958Z" fill="#373737"/>
<path d="M120.251 145.589C120.251 147.344 119.648 148.142 118.506 148.142C117.365 148.142 116.761 147.344 116.761 145.589C116.761 143.836 117.365 143.037 118.506 143.037C119.648 143.037 120.251 143.836 120.251 145.589ZM117.559 145.413V145.766C117.559 146.889 117.874 147.464 118.506 147.464C119.137 147.464 119.453 146.889 119.453 145.766V145.413C119.453 144.29 119.137 143.714 118.506 143.714C117.874 143.714 117.559 144.29 117.559 145.413Z" fill="#373737"/>
<path d="M126.868 144.513V148.03H126.108V144.569C126.108 143.891 125.839 143.714 125.477 143.714C125.022 143.714 124.641 144.206 124.641 145.051V148.03H123.881V144.569C123.881 143.891 123.612 143.714 123.25 143.714C122.795 143.714 122.405 144.206 122.405 145.051V148.03H121.644V143.148H122.219L122.321 143.714H122.377C122.637 143.232 123.027 143.036 123.49 143.036C123.973 143.036 124.353 143.241 124.531 143.742C124.79 143.278 125.254 143.036 125.718 143.036C126.405 143.037 126.868 143.427 126.868 144.513Z" fill="#373737"/>
<path d="M131.724 145.329V145.813H129.079C129.088 146.954 129.421 147.464 130.147 147.464C130.629 147.464 130.973 147.047 130.973 146.368H131.724C131.724 147.464 131.074 148.142 130.128 148.142C128.913 148.142 128.28 147.399 128.28 145.589C128.28 143.835 128.893 143.036 130.118 143.036C131.186 143.037 131.724 143.696 131.724 145.329ZM129.088 145.134H130.926C130.926 144.207 130.648 143.714 130.118 143.714C129.441 143.714 129.152 144.198 129.088 145.134Z" fill="#373737"/>
<path d="M136.394 142.23H135.633V141.32H136.394V142.23ZM136.394 148.03H135.633V143.148H136.394V148.03Z" fill="#373737"/>
<path d="M140.664 144.373C140.664 144.439 140.655 144.531 140.655 144.55H139.865V144.466C139.865 144.085 139.708 143.706 139.188 143.706C138.65 143.706 138.53 144.104 138.53 144.373C138.53 145.441 140.757 144.819 140.757 146.637C140.757 147.687 140.098 148.142 139.198 148.142C138.075 148.142 137.629 147.436 137.629 146.712C137.629 146.582 137.638 146.526 137.638 146.507H138.437V146.6C138.437 147.213 138.79 147.473 139.234 147.473C139.633 147.473 139.968 147.223 139.968 146.749C139.968 145.524 137.74 146.182 137.74 144.429C137.74 143.566 138.334 143.036 139.263 143.036C140.172 143.037 140.664 143.65 140.664 144.373Z" fill="#373737"/>
<path d="M145.491 143.659H145.547C145.797 143.222 146.16 143.037 146.642 143.037C147.375 143.037 147.849 143.427 147.849 144.513V148.03H147.087V144.569C147.087 143.891 146.809 143.714 146.4 143.714C145.918 143.714 145.491 144.206 145.491 145.051V148.03H144.731V141.32H145.491V143.659Z" fill="#373737"/>
<path d="M150.096 142.23H149.335V141.32H150.096V142.23ZM150.096 148.03H149.335V143.148H150.096V148.03Z" fill="#373737"/>
<path d="M155.07 142.36C155.07 142.944 154.764 143.399 154.254 143.53C154.523 143.807 154.691 144.198 154.691 144.68C154.691 145.692 154.077 146.315 153.131 146.323H152.621C152.371 146.323 152.175 146.518 152.175 146.76C152.175 147.001 152.379 147.195 152.621 147.195H154.013C154.718 147.195 155.163 147.716 155.163 148.337C155.163 149.107 154.662 149.72 153.734 149.72H152.351C151.552 149.72 151.144 149.2 151.144 148.559C151.144 148.087 151.386 147.669 151.776 147.52C151.525 147.363 151.376 147.075 151.376 146.787C151.376 146.388 151.655 146.091 152.063 145.943C151.711 145.655 151.498 145.227 151.498 144.68C151.498 143.66 152.1 143.037 153.094 143.037C153.344 143.037 153.595 143.102 153.798 143.213C154.236 142.981 154.355 142.666 154.402 142.36H155.07ZM152.472 147.919C152.082 147.919 151.906 148.17 151.906 148.486C151.906 148.801 152.092 149.061 152.472 149.061H153.818C154.143 149.061 154.393 148.801 154.393 148.486C154.393 148.17 154.208 147.919 153.818 147.919H152.472ZM152.258 144.68C152.258 145.33 152.546 145.692 153.085 145.692C153.623 145.692 153.92 145.303 153.92 144.68C153.92 144.031 153.623 143.668 153.085 143.668C152.546 143.668 152.258 144.058 152.258 144.68Z" fill="#373737"/>
<path d="M157.039 143.659H157.095C157.345 143.222 157.709 143.037 158.191 143.037C158.924 143.037 159.398 143.427 159.398 144.513V148.03H158.636V144.569C158.636 143.891 158.358 143.714 157.949 143.714C157.467 143.714 157.04 144.206 157.04 145.051V148.03H156.279V141.32H157.04V143.659H157.039Z" fill="#373737"/>
<path d="M164.251 145.329V145.813H161.606C161.615 146.954 161.949 147.464 162.674 147.464C163.156 147.464 163.5 147.047 163.5 146.368H164.251C164.251 147.464 163.601 148.142 162.655 148.142C161.439 148.142 160.807 147.399 160.807 145.589C160.807 143.835 161.42 143.036 162.645 143.036C163.713 143.037 164.251 143.696 164.251 145.329ZM161.616 145.134H163.453C163.453 144.207 163.175 143.714 162.645 143.714C161.968 143.714 161.679 144.198 161.616 145.134Z" fill="#373737"/>
<path d="M167.594 143.111V143.9H167.343C166.861 143.9 166.434 144.188 166.434 145.051V148.03H165.673V143.148H166.248L166.35 143.789H166.406C166.526 143.417 166.768 143.036 167.232 143.036C167.436 143.037 167.594 143.111 167.594 143.111Z" fill="#373737"/>
<path d="M172.003 143.149H172.663V143.826H172.003V147.02C172.003 147.308 172.152 147.465 172.44 147.465H172.663V147.995C172.533 148.068 172.301 148.124 172.115 148.124C171.447 148.124 171.242 147.558 171.242 147.002V143.827H170.825V143.149H171.242L171.409 141.794H172.004L172.003 143.149Z" fill="#373737"/>
<path d="M174.593 143.659H174.649C174.899 143.222 175.262 143.037 175.744 143.037C176.477 143.037 176.951 143.427 176.951 144.513V148.03H176.189V144.569C176.189 143.891 175.911 143.714 175.502 143.714C175.02 143.714 174.593 144.206 174.593 145.051V148.03H173.832V141.32H174.593V143.659H174.593Z" fill="#373737"/>
<path d="M181.517 144.401V147.14C181.517 147.371 181.648 147.464 181.778 147.464H182.074V147.994C181.991 148.04 181.815 148.104 181.573 148.104C181.175 148.104 180.896 147.864 180.803 147.502H180.756C180.506 147.9 180.079 148.142 179.568 148.142C179.086 148.142 178.287 147.946 178.287 146.768C178.287 145.422 179.336 145.133 180.756 145.133V144.503C180.756 144.038 180.607 143.713 179.985 143.713C179.411 143.713 179.233 144.113 179.233 144.485V144.596H178.482C178.473 144.54 178.473 144.475 178.473 144.392C178.473 143.5 179.123 143.036 180.041 143.036C181.025 143.037 181.517 143.538 181.517 144.401ZM180.756 145.813C179.764 145.813 179.086 145.96 179.086 146.722C179.086 147.278 179.318 147.464 179.744 147.464C180.228 147.464 180.756 147.065 180.756 146.258V145.813Z" fill="#373737"/>
<path d="M186.345 144.513V148.03H185.584V144.569C185.584 143.891 185.305 143.714 184.897 143.714C184.414 143.714 183.987 144.206 183.987 145.051V148.03H183.227V143.148H183.802L183.904 143.714H183.96C184.229 143.232 184.656 143.036 185.138 143.036C185.871 143.037 186.345 143.427 186.345 144.513Z" fill="#373737"/>
<path d="M191.172 142.23H190.412V141.32H191.172V142.23ZM191.172 148.03H190.412V143.148H191.172V148.03Z" fill="#373737"/>
<path d="M195.777 144.513V148.03H195.015V144.569C195.015 143.891 194.737 143.714 194.328 143.714C193.846 143.714 193.419 144.206 193.419 145.051V148.03H192.658V143.148H193.233L193.335 143.714H193.391C193.66 143.232 194.088 143.036 194.57 143.036C195.303 143.037 195.777 143.427 195.777 144.513Z" fill="#373737"/>
<path d="M200.297 144.958H199.509C199.509 144.114 199.351 143.714 198.803 143.714C198.199 143.714 197.93 144.29 197.93 145.413V145.767C197.93 146.889 198.191 147.465 198.803 147.465C199.35 147.465 199.546 147.029 199.546 146.222H200.297C200.297 147.242 199.88 148.143 198.803 148.143C197.652 148.143 197.132 147.345 197.132 145.59C197.132 143.837 197.661 143.038 198.803 143.038C199.861 143.037 200.297 143.714 200.297 144.958Z" fill="#373737"/>
<path d="M204.93 145.589C204.93 147.344 204.327 148.142 203.185 148.142C202.044 148.142 201.44 147.344 201.44 145.589C201.44 143.836 202.044 143.037 203.185 143.037C204.327 143.037 204.93 143.836 204.93 145.589ZM202.237 145.413V145.766C202.237 146.889 202.554 147.464 203.185 147.464C203.816 147.464 204.132 146.889 204.132 145.766V145.413C204.132 144.29 203.816 143.714 203.185 143.714C202.554 143.714 202.237 144.29 202.237 145.413Z" fill="#373737"/>
<path d="M211.546 144.513V148.03H210.786V144.569C210.786 143.891 210.517 143.714 210.155 143.714C209.7 143.714 209.319 144.206 209.319 145.051V148.03H208.559V144.569C208.559 143.891 208.29 143.714 207.928 143.714C207.473 143.714 207.083 144.206 207.083 145.051V148.03H206.322V143.148H206.897L207 143.714H207.056C207.315 143.232 207.706 143.036 208.169 143.036C208.652 143.036 209.033 143.241 209.209 143.742C209.469 143.278 209.933 143.036 210.397 143.036C211.083 143.037 211.546 143.427 211.546 144.513Z" fill="#373737"/>
<path d="M216.402 145.329V145.813H213.757C213.767 146.954 214.1 147.464 214.825 147.464C215.307 147.464 215.652 147.047 215.652 146.368H216.403C216.403 147.464 215.753 148.142 214.807 148.142C213.591 148.142 212.959 147.399 212.959 145.589C212.959 143.835 213.572 143.036 214.797 143.036C215.864 143.037 216.402 143.696 216.402 145.329ZM213.767 145.134H215.604C215.604 144.207 215.326 143.714 214.796 143.714C214.119 143.714 213.831 144.198 213.767 145.134Z" fill="#373737"/>
<path d="M223.346 144.958H222.558C222.558 144.114 222.4 143.714 221.852 143.714C221.248 143.714 220.979 144.29 220.979 145.413V145.767C220.979 146.889 221.24 147.465 221.852 147.465C222.399 147.465 222.595 147.029 222.595 146.222H223.346C223.346 147.242 222.929 148.143 221.852 148.143C220.701 148.143 220.182 147.345 220.182 145.59C220.182 143.837 220.71 143.038 221.852 143.038C222.91 143.037 223.346 143.714 223.346 144.958Z" fill="#373737"/>
<path d="M227.663 144.401V147.14C227.663 147.371 227.793 147.464 227.923 147.464H228.22V147.994C228.136 148.04 227.96 148.104 227.719 148.104C227.32 148.104 227.041 147.864 226.948 147.502H226.902C226.652 147.9 226.224 148.142 225.714 148.142C225.232 148.142 224.433 147.946 224.433 146.768C224.433 145.422 225.481 145.133 226.901 145.133V144.503C226.901 144.038 226.753 143.713 226.131 143.713C225.556 143.713 225.379 144.113 225.379 144.485V144.596H224.628C224.618 144.54 224.618 144.475 224.618 144.392C224.618 143.5 225.268 143.036 226.187 143.036C227.171 143.037 227.663 143.538 227.663 144.401ZM226.902 145.813C225.909 145.813 225.232 145.96 225.232 146.722C225.232 147.278 225.464 147.464 225.89 147.464C226.373 147.464 226.902 147.065 226.902 146.258V145.813Z" fill="#373737"/>
<path d="M230.04 148.03H229.279V141.32H230.04V148.03Z" fill="#373737"/>
<path d="M232.193 148.03H231.433V141.32H232.193V148.03Z" fill="#373737"/>
<path d="M236.955 145.329V145.813H234.31C234.319 146.954 234.652 147.464 235.378 147.464C235.86 147.464 236.203 147.047 236.203 146.368H236.955C236.955 147.464 236.305 148.142 235.358 148.142C234.143 148.142 233.511 147.399 233.511 145.589C233.511 143.835 234.123 143.036 235.349 143.036C236.417 143.037 236.955 143.696 236.955 145.329ZM234.319 145.134H236.157C236.157 144.207 235.879 143.714 235.349 143.714C234.672 143.714 234.384 144.198 234.319 145.134Z" fill="#373737"/>
<path d="M241.495 148.03H240.919L240.817 147.464H240.771C240.538 147.91 240.149 148.142 239.704 148.142C238.776 148.142 238.191 147.371 238.191 145.581C238.191 143.807 238.841 143.037 239.648 143.037C240.122 143.037 240.521 143.251 240.688 143.613H240.734V141.32H241.496V148.03H241.495ZM238.988 145.413V145.766C238.988 146.982 239.276 147.464 239.861 147.464C240.446 147.464 240.733 146.889 240.733 145.766V145.45C240.733 144.3 240.446 143.714 239.861 143.714C239.276 143.714 238.988 144.198 238.988 145.413Z" fill="#373737"/>
<path d="M245.857 142.814H246.228V143.817H245.3V142.897L245.746 141.663H246.228L245.857 142.814ZM247.037 142.814H247.407V143.817H246.479V142.897L246.925 141.663H247.407L247.037 142.814Z" fill="#373737"/>
<path d="M248.745 148.03V141.663H249.562V147.288H252.161V148.031H248.745V148.03Z" fill="#373737"/>
<path d="M256.654 145.589C256.654 147.344 256.05 148.142 254.909 148.142C253.767 148.142 253.164 147.344 253.164 145.589C253.164 143.836 253.767 143.037 254.909 143.037C256.05 143.037 256.654 143.836 256.654 145.589ZM253.961 145.413V145.766C253.961 146.889 254.278 147.464 254.909 147.464C255.54 147.464 255.856 146.889 255.856 145.766V145.413C255.856 144.29 255.54 143.714 254.909 143.714C254.278 143.714 253.961 144.29 253.961 145.413Z" fill="#373737"/>
<path d="M260.831 144.373C260.831 144.439 260.822 144.531 260.822 144.55H260.033V144.466C260.033 144.085 259.876 143.706 259.356 143.706C258.818 143.706 258.697 144.104 258.697 144.373C258.697 145.441 260.925 144.819 260.925 146.637C260.925 147.687 260.265 148.142 259.365 148.142C258.243 148.142 257.796 147.436 257.796 146.712C257.796 146.582 257.806 146.526 257.806 146.507H258.605V146.6C258.605 147.213 258.957 147.473 259.402 147.473C259.801 147.473 260.135 147.223 260.135 146.749C260.135 145.524 257.908 146.182 257.908 144.429C257.908 143.566 258.502 143.036 259.431 143.036C260.339 143.037 260.831 143.65 260.831 144.373Z" fill="#373737"/>
<path d="M262.985 142.23H262.224V141.32H262.985V142.23ZM262.985 148.03H262.224V143.148H262.985V148.03Z" fill="#373737"/>
<path d="M267.589 144.513V148.03H266.827V144.569C266.827 143.891 266.549 143.714 266.14 143.714C265.658 143.714 265.231 144.206 265.231 145.051V148.03H264.47V143.148H265.045L265.147 143.714H265.203C265.472 143.232 265.9 143.036 266.382 143.036C267.115 143.037 267.589 143.427 267.589 144.513Z" fill="#373737"/>
<path d="M272.657 142.36C272.657 142.944 272.351 143.399 271.84 143.53C272.11 143.807 272.277 144.198 272.277 144.68C272.277 145.692 271.664 146.315 270.718 146.323H270.207C269.957 146.323 269.762 146.518 269.762 146.76C269.762 147.001 269.966 147.195 270.207 147.195H271.6C272.305 147.195 272.75 147.716 272.75 148.337C272.75 149.107 272.249 149.72 271.322 149.72H269.939C269.14 149.72 268.732 149.2 268.732 148.559C268.732 148.087 268.973 147.669 269.364 147.52C269.112 147.363 268.964 147.075 268.964 146.787C268.964 146.388 269.242 146.091 269.651 145.943C269.298 145.655 269.085 145.227 269.085 144.68C269.085 143.66 269.687 143.037 270.681 143.037C270.931 143.037 271.182 143.102 271.386 143.213C271.823 142.981 271.943 142.666 271.989 142.36H272.657ZM270.058 147.919C269.669 147.919 269.492 148.17 269.492 148.486C269.492 148.801 269.678 149.061 270.058 149.061H271.404C271.73 149.061 271.979 148.801 271.979 148.486C271.979 148.17 271.794 147.919 271.404 147.919H270.058ZM269.845 144.68C269.845 145.33 270.133 145.692 270.671 145.692C271.209 145.692 271.507 145.303 271.507 144.68C271.507 144.031 271.209 143.668 270.671 143.668C270.133 143.668 269.845 144.058 269.845 144.68Z" fill="#373737"/>
<path d="M274.458 142.582L274.013 143.817H273.53L273.901 142.666H273.53V141.663H274.458V142.582ZM275.637 142.582L275.191 143.817H274.708L275.079 142.666H274.708V141.663H275.637V142.582Z" fill="#373737"/>
<path d="M358.236 110.072H88.9855V111.003H358.236V110.072Z" fill="#373737"/>
<path d="M103.226 105.172C101.884 105.172 100.745 104.777 99.8048 103.99C98.8649 103.202 98.3957 102.257 98.3957 101.156V91.9686C98.3957 90.8501 98.869 89.8985 99.8137 89.1143C100.757 88.3316 101.896 87.9398 103.226 87.9398C104.568 87.9398 105.705 88.3331 106.64 89.1217C107.574 89.9098 108.04 90.8584 108.04 91.9686V93.8889H104.884V91.9151C104.884 91.5119 104.713 91.1682 104.37 90.881C104.026 90.5952 103.612 90.4518 103.13 90.4518C102.647 90.4518 102.236 90.5952 101.898 90.881C101.561 91.1682 101.391 91.5119 101.391 91.9151V101.129C101.391 101.532 101.561 101.874 101.898 102.156C102.236 102.438 102.647 102.579 103.13 102.579C103.612 102.579 104.026 102.439 104.37 102.158C104.713 101.877 104.884 101.535 104.884 101.133V97.8249H103.195V95.2736H108.04V101.156C108.04 102.276 107.567 103.224 106.623 104.003C105.678 104.783 104.547 105.172 103.226 105.172Z" fill="#373737"/>
<path d="M114.912 88.1281C116.607 88.1281 117.852 88.5175 118.647 89.2963C119.344 89.9768 119.693 90.9264 119.693 92.1442V94.588C119.693 95.7792 119.15 96.7867 118.067 97.6097L120.32 104.956H117.031L115.186 98.6172C115.1 98.6172 115.008 98.6172 114.912 98.6172H113.157V104.956H110.114V88.1281H114.912ZM116.731 92.1839C116.731 91.2078 116.151 90.7192 114.992 90.7192H113.157V96.1057H114.992C115.475 96.1057 115.886 95.9623 116.224 95.6751C116.562 95.3893 116.731 95.0441 116.731 94.641V92.1839H116.731Z" fill="#373737"/>
<path d="M126.659 87.9134C128.001 87.9134 129.142 88.3082 130.081 89.0953C131.02 89.8834 131.49 90.833 131.49 91.9432V101.129C131.49 102.249 131.016 103.2 130.073 103.983C129.128 104.768 127.99 105.159 126.659 105.159C125.317 105.159 124.18 104.766 123.247 103.977C122.313 103.189 121.846 102.24 121.846 101.129V91.9432C121.846 90.8237 122.319 89.873 123.263 89.0889C124.207 88.3047 125.34 87.9134 126.659 87.9134ZM128.317 91.8892C128.317 91.486 128.149 91.1433 127.81 90.8615C127.472 90.5796 127.061 90.4382 126.579 90.4382C126.096 90.4382 125.682 90.5796 125.339 90.8615C124.996 91.1433 124.823 91.486 124.823 91.8892V101.103C124.823 101.506 124.995 101.847 125.339 102.13C125.682 102.412 126.096 102.554 126.579 102.554C127.061 102.554 127.472 102.412 127.81 102.13C128.149 101.847 128.317 101.506 128.317 101.103V91.8892Z" fill="#373737"/>
<path d="M145.519 88.1281H148.712L145.557 104.956H142.659L140.924 95.6976L139.306 104.956H136.394L133.015 88.1281H136.204L137.798 97.1398L139.262 88.1281H142.449L144.041 97.1324L145.519 88.1281Z" fill="#373737"/>
<path d="M153.474 90.6795H150.238V88.1281H159.736V90.6795H156.517V104.956H153.474V90.6795Z" fill="#373737"/>
<path d="M164.66 97.8247V104.956H161.617V88.1281H164.66V95.2734H168.33V88.1281H171.373V104.956H168.33V97.8247H164.66Z" fill="#373737"/>
<path d="M192.118 100.767C192.139 101.939 191.773 102.942 191.022 103.775C190.529 104.338 189.831 104.737 188.93 104.97C188.447 105.095 187.883 105.158 187.239 105.158C186.048 105.158 185.06 104.912 184.277 104.419C183.622 104.016 183.104 103.468 182.724 102.775C182.342 102.08 182.119 101.286 182.054 100.39L184.953 100.216C185.081 101.197 185.392 101.907 185.887 102.348C186.251 102.682 186.67 102.839 187.143 102.821C187.808 102.803 188.339 102.53 188.737 102.001C188.94 101.741 189.043 101.369 189.043 100.886C189.043 100.187 188.661 99.4921 187.9 98.8022C187.299 98.3274 186.397 97.6154 185.195 96.6648C184.186 95.8492 183.473 95.1191 183.054 94.4734C182.603 93.7472 182.378 92.9591 182.378 92.1077C182.378 90.5757 182.994 89.4149 184.229 88.6259C184.991 88.1511 185.936 87.9134 187.063 87.9134C188.147 87.9134 189.075 88.1147 189.848 88.5178C190.449 88.8311 190.934 89.2701 191.305 89.8338C191.676 90.3984 191.899 91.0471 191.973 91.7816L189.059 92.2245C188.973 91.5356 188.738 90.9985 188.351 90.6135C188.073 90.3361 187.67 90.1966 187.145 90.1966C186.585 90.1966 186.162 90.4024 185.872 90.8148C185.635 91.1463 185.518 91.5577 185.518 92.0502C185.518 92.8206 185.915 93.6033 186.709 94.3997C187.009 94.7047 187.46 95.0626 188.061 95.4736C188.769 95.9666 189.236 96.3113 189.462 96.5086C190.212 97.1352 190.793 97.7529 191.201 98.3613C191.394 98.648 191.55 98.9117 191.667 99.1538C191.957 99.7548 192.106 100.292 192.118 100.767Z" fill="#373737"/>
<path d="M196.879 90.6795H193.643V88.1281H203.141V90.6795H199.922V104.956H196.879V90.6795Z" fill="#373737"/>
<path d="M209.82 88.1281C211.515 88.1281 212.76 88.5175 213.555 89.2963C214.252 89.9768 214.601 90.9264 214.601 92.1442V94.588C214.601 95.7792 214.058 96.7867 212.975 97.6097L215.228 104.956H211.939L210.093 98.6172C210.008 98.6172 209.916 98.6172 209.82 98.6172H208.065V104.956H205.022V88.1281H209.82ZM211.639 92.1839C211.639 91.2078 211.059 90.7192 209.9 90.7192H208.065V96.1057H209.9C210.383 96.1057 210.794 95.9623 211.132 95.6751C211.47 95.3893 211.639 95.0441 211.639 94.641L211.639 92.1839Z" fill="#373737"/>
<path d="M221.016 101.088L220.276 104.956H217.108L220.538 88.1281H224.724L228.105 104.956H224.905L224.193 101.088H221.016ZM222.615 91.9826L221.488 98.6172H223.742L222.615 91.9826Z" fill="#373737"/>
<path d="M230.484 90.6795H227.248V88.1281H236.746V90.6795H233.527V104.956H230.484V90.6795Z" fill="#373737"/>
<path d="M238.627 104.957V88.1147H247.288V90.667H241.67V95.26H245.775V97.8113H241.67V102.405H247.288V104.957H238.627Z" fill="#373737"/>
<path d="M253.644 105.172C252.302 105.172 251.163 104.777 250.223 103.99C249.283 103.202 248.814 102.257 248.814 101.156V91.9686C248.814 90.8501 249.287 89.8985 250.232 89.1143C251.175 88.3316 252.314 87.9398 253.644 87.9398C254.986 87.9398 256.124 88.3331 257.058 89.1217C257.992 89.9098 258.459 90.8584 258.459 91.9686V93.8889H255.303V91.9151C255.303 91.5119 255.131 91.1682 254.788 90.881C254.444 90.5952 254.031 90.4518 253.549 90.4518C253.065 90.4518 252.654 90.5952 252.317 90.881C251.979 91.1682 251.809 91.5119 251.809 91.9151V101.129C251.809 101.532 251.979 101.874 252.317 102.156C252.654 102.438 253.065 102.579 253.549 102.579C254.031 102.579 254.444 102.439 254.788 102.158C255.131 101.877 255.303 101.535 255.303 101.133V97.8249H253.613V95.2736H258.459V101.156C258.459 102.276 257.985 103.224 257.042 104.003C256.097 104.783 254.965 105.172 253.644 105.172Z" fill="#373737"/>
<path d="M263.574 104.956H260.531V88.1281H263.574V104.956Z" fill="#373737"/>
<path d="M265.727 104.957V88.1147H274.388V90.667H268.77V95.26H272.876V97.8113H268.77V102.405H274.388V104.957H265.727Z" fill="#373737"/>
<path d="M285.978 100.767C285.999 101.939 285.633 102.942 284.882 103.775C284.389 104.338 283.691 104.737 282.79 104.97C282.307 105.095 281.743 105.158 281.099 105.158C279.908 105.158 278.92 104.912 278.138 104.419C277.482 104.016 276.965 103.468 276.584 102.775C276.202 102.08 275.98 101.286 275.915 100.39L278.814 100.216C278.942 101.197 279.253 101.907 279.747 102.348C280.112 102.682 280.53 102.839 281.003 102.821C281.669 102.803 282.2 102.53 282.597 102.001C282.801 101.741 282.903 101.369 282.903 100.886C282.903 100.187 282.521 99.4921 281.76 98.8022C281.159 98.3274 280.257 97.6154 279.055 96.6648C278.046 95.8492 277.333 95.1191 276.914 94.4734C276.463 93.7472 276.238 92.9591 276.238 92.1077C276.238 90.5757 276.856 89.4149 278.09 88.6259C278.851 88.1511 279.796 87.9134 280.923 87.9134C282.007 87.9134 282.935 88.1147 283.708 88.5178C284.309 88.8311 284.795 89.2701 285.165 89.8338C285.536 90.3984 285.758 91.0471 285.833 91.7816L282.919 92.2245C282.833 91.5356 282.597 90.9985 282.211 90.6135C281.932 90.3361 281.529 90.1966 281.004 90.1966C280.445 90.1966 280.022 90.4024 279.731 90.8148C279.495 91.1463 279.377 91.5577 279.377 92.0502C279.377 92.8206 279.774 93.6033 280.568 94.3997C280.868 94.7047 281.319 95.0626 281.92 95.4736C282.628 95.9666 283.095 96.3113 283.322 96.5086C284.072 97.1352 284.652 97.7529 285.06 98.3613C285.254 98.648 285.409 98.9117 285.527 99.1538C285.817 99.7548 285.966 100.292 285.978 100.767Z" fill="#373737"/>
<g opacity="0.91">
<path d="M203.524 57.0885H188.729V64.687H203.524V57.0885Z" fill="white"/>
</g>
<g opacity="0.91">
<path d="M225.717 50.4223H210.923V64.6868H225.717V50.4223Z" fill="white"/>
</g>
<g opacity="0.91">
<path d="M247.908 45.624H233.116V64.6862H247.908V45.624Z" fill="white"/>
</g>
<g opacity="0.91">
<path d="M270.098 40.0254H255.308V64.6862H270.098V40.0254Z" fill="white"/>
</g>
<g opacity="0.91">
<path d="M293.406 30.4084H278.612V64.6863H293.406V30.4084Z" fill="white"/>
</g>
<g opacity="0.91">
<path d="M315.733 23.6262H300.939V64.687H315.733V23.6262Z" fill="white"/>
</g>
<g opacity="0.91">
<path d="M339.039 17.3165H324.246V64.6863H339.039V17.3165Z" fill="white"/>
</g>
<g opacity="0.91">
<path d="M203.524 60.49H188.729V64.6867H203.524V60.49Z" fill="#FE4A0F"/>
</g>
<g opacity="0.91">
<path d="M225.717 60.6255H210.923V64.8075H225.717V60.6255Z" fill="#FE4A0F"/>
</g>
<g opacity="0.91">
<path d="M247.908 56.9822H233.116V64.6868H247.908V56.9822Z" fill="#FE4A0F"/>
</g>
<g opacity="0.91">
<path d="M270.098 51.068H255.308V64.6868H270.098V51.068Z" fill="#FE4A0F"/>
</g>
<g opacity="0.91">
<path d="M293.406 48.06H278.612V64.6868H293.406V48.06Z" fill="#FE4A0F"/>
</g>
<g opacity="0.91">
<path d="M315.733 42.0107H300.939V64.6863H315.733V42.0107Z" fill="#FE4A0F"/>
</g>
<g opacity="0.91">
<path d="M339.039 30.2137H324.246V64.687H339.039V30.2137Z" fill="#FE4A0F"/>
</g>
</g>
<defs>
<filter id="filter0_d_0_645" x="90.1124" y="101.372" width="571.389" height="462.628" filterUnits="userSpaceOnUse" color-interpolation-filters="sRGB">
<feFlood flood-opacity="0" result="BackgroundImageFix"/>
<feColorMatrix in="SourceAlpha" type="matrix" values="0 0 0 0 0 0 0 0 0 0 0 0 0 0 0 0 0 0 127 0" result="hardAlpha"/>
<feOffset dy="4"/>
<feGaussianBlur stdDeviation="5"/>
<feComposite in2="hardAlpha" operator="out"/>
<feColorMatrix type="matrix" values="0 0 0 0 0 0 0 0 0 0 0 0 0 0 0 0 0 0 0.1 0"/>
<feBlend mode="normal" in2="BackgroundImageFix" result="effect1_dropShadow_0_645"/>
<feBlend mode="normal" in="SourceGraphic" in2="effect1_dropShadow_0_645" result="shape"/>
</filter>
<filter id="filter1_d_0_645" x="0" y="0" width="374.995" height="182.902" filterUnits="userSpaceOnUse" color-interpolation-filters="sRGB">
<feFlood flood-opacity="0" result="BackgroundImageFix"/>
<feColorMatrix in="SourceAlpha" type="matrix" values="0 0 0 0 0 0 0 0 0 0 0 0 0 0 0 0 0 0 127 0" result="hardAlpha"/>
<feOffset dy="4"/>
<feGaussianBlur stdDeviation="5"/>
<feComposite in2="hardAlpha" operator="out"/>
<feColorMatrix type="matrix" values="0 0 0 0 0 0 0 0 0 0 0 0 0 0 0 0 0 0 0.1 0"/>
<feBlend mode="normal" in2="BackgroundImageFix" result="effect1_dropShadow_0_645"/>
<feBlend mode="normal" in="SourceGraphic" in2="effect1_dropShadow_0_645" result="shape"/>
</filter>
<linearGradient id="paint0_linear_0_645" x1="306.031" y1="410.587" x2="226.588" y2="539.863" gradientUnits="userSpaceOnUse">
<stop stop-color="#9084A6" stop-opacity="0"/>
<stop offset="0.9924" stop-color="#B14E71" stop-opacity="0.9"/>
</linearGradient>
<linearGradient id="paint1_linear_0_645" x1="367.525" y1="339.433" x2="332.571" y2="402.35" gradientUnits="userSpaceOnUse">
<stop stop-color="#9084A6" stop-opacity="0"/>
<stop offset="0.9924" stop-color="#B14E71" stop-opacity="0.9"/>
</linearGradient>
<linearGradient id="paint2_linear_0_645" x1="458.152" y1="259.876" x2="428.023" y2="318.603" gradientUnits="userSpaceOnUse">
<stop stop-color="#9084A6" stop-opacity="0"/>
<stop offset="0.9924" stop-color="#B14E71" stop-opacity="0.9"/>
</linearGradient>
<linearGradient id="paint3_linear_0_645" x1="543.415" y1="163.504" x2="551.075" y2="248.275" gradientUnits="userSpaceOnUse">
<stop stop-color="#9084A6" stop-opacity="0"/>
<stop offset="0.9924" stop-color="#B14E71" stop-opacity="0.9"/>
</linearGradient>
<linearGradient id="paint4_linear_0_645" x1="131.769" y1="15.7882" x2="132.181" y2="77.8244" gradientUnits="userSpaceOnUse">
<stop offset="0.00760001" stop-color="#FF6F40"/>
<stop offset="1" stop-color="#FFB096"/>
</linearGradient>
</defs>
</svg>
