<svg width="166" height="44" viewBox="0 0 166 44" fill="none" xmlns="http://www.w3.org/2000/svg">
<path d="M22 42.5C33.3218 42.5 42.5 33.3218 42.5 22C42.5 10.6782 33.3218 1.5 22 1.5C10.6782 1.5 1.5 10.6782 1.5 22C1.5 33.3218 10.6782 42.5 22 42.5Z" stroke="#FE4A0F" stroke-width="3"/>
<path d="M30.1312 30.1317C25.9918 34.2711 21.3023 36.9733 17.1259 38.0472C12.9119 39.1309 9.51527 38.5071 7.50386 36.4957C5.49245 34.4843 4.86866 31.0876 5.95229 26.8735C7.02621 22.6972 9.72842 18.0077 13.8678 13.8683C18.0072 9.72894 22.6967 7.0267 26.8731 5.95278C31.0872 4.86915 34.4838 5.49294 36.4952 7.50435C38.5066 9.51575 39.1304 12.9123 38.0468 17.1264C36.9728 21.3028 34.2706 25.9923 30.1312 30.1317Z" stroke="#FE4A0F" stroke-width="3"/>
<path d="M30.1312 13.8683C34.2706 18.0077 36.9728 22.6972 38.0468 26.8736C39.1304 31.0877 38.5066 34.4843 36.4952 36.4957C34.4838 38.5071 31.0872 39.1309 26.8731 38.0473C22.6967 36.9734 18.0072 34.2712 13.8678 30.1318C9.72842 25.9924 7.02621 21.3029 5.95228 17.1265C4.86866 12.9124 5.49245 9.51579 7.50385 7.50435C9.51526 5.49294 12.9119 4.86915 17.126 5.95278C21.3023 7.0267 25.9918 9.72889 30.1312 13.8683Z" stroke="#FE4A0F" stroke-width="3"/>
<path d="M62.8502 31.9903C67.5602 31.9903 70.7402 29.5303 70.7402 25.6003C70.7402 17.2903 59.7002 20.8303 59.7002 16.4503C59.7002 15.2203 60.8102 14.3803 62.5802 14.3803C64.5902 14.3803 65.8502 15.4603 66.0002 17.1103H70.2902C70.1702 13.1203 67.1102 10.5103 62.5802 10.5103C58.3202 10.5103 55.3202 12.9703 55.3202 16.4503C55.3202 24.7003 66.2102 21.5503 66.2102 25.6603C66.2102 27.2503 64.8602 28.0903 62.8502 28.0903C60.6302 28.0903 59.2202 26.7403 59.0402 24.6103H54.7202C54.9002 29.0803 58.0802 31.9903 62.8502 31.9903Z" fill="#FE4A0F"/>
<path d="M71.7607 37.8701H75.9307V30.4001C76.7407 31.4201 78.2106 31.9901 79.9207 31.9901C84.2706 31.9901 87.2106 28.9001 87.2106 24.1901C87.2106 19.4801 84.5107 16.3901 80.2807 16.3901C78.3307 16.3901 76.8307 17.1101 75.9307 18.2801V16.6301H71.7607V37.8701ZM79.4106 28.3901C77.1606 28.3901 75.6907 26.7101 75.6907 24.1901C75.6907 21.6401 77.1606 19.9601 79.4106 19.9601C81.6007 19.9601 83.1007 21.6401 83.1007 24.1901C83.1007 26.7101 81.6007 28.3901 79.4106 28.3901Z" fill="#FE4A0F"/>
<path d="M88.2197 31.7501H92.3897V23.4701C92.3897 21.5201 93.6797 20.1101 95.5097 20.1101C97.2497 20.1101 98.4497 21.4301 98.4497 23.2601V31.7501H102.619V22.3301C102.619 18.8501 100.399 16.3901 97.0097 16.3901C94.9097 16.3901 93.2597 17.2601 92.3897 18.7301V10.0601H88.2197V31.7501Z" fill="#FE4A0F"/>
<path d="M114.285 26.6201C113.955 27.9101 112.845 28.5701 111.165 28.5701C109.065 28.5701 107.715 27.2501 107.415 25.1201H118.275C118.305 24.7901 118.335 24.3401 118.335 23.7701C118.335 20.3201 116.205 16.3901 110.865 16.3901C105.735 16.3901 103.395 20.3201 103.395 24.1601C103.395 27.9701 106.035 31.9901 111.165 31.9901C114.885 31.9901 117.765 29.8901 118.365 26.6201H114.285ZM110.865 19.4501C112.875 19.4501 114.045 20.8001 114.165 22.4801H107.475C107.835 20.3801 108.975 19.4501 110.865 19.4501Z" fill="#FE4A0F"/>
<path d="M129.271 20.1099V16.6299H127.12C125.29 16.6299 124.15 17.2599 123.34 19.1499V16.6299H119.14V31.7499H123.34V24.3999C123.34 21.8199 124.27 20.1099 126.34 20.1099H129.271Z" fill="#FE4A0F"/>
<path d="M143.671 16.6299H139.471V24.9099C139.471 26.8299 138.181 28.2699 136.351 28.2699C134.641 28.2699 133.441 26.9499 133.441 25.1199V16.6299H129.271V26.0499C129.271 29.4999 131.491 31.9899 134.881 31.9899C136.951 31.9899 138.631 31.0899 139.471 29.6499V31.7499H143.671V16.6299Z" fill="#FE4A0F"/>
<path d="M145.471 31.7501H149.641V10.0601H145.471V31.7501Z" fill="#FE4A0F"/>
<path d="M161.546 26.6201C161.216 27.9101 160.106 28.5701 158.426 28.5701C156.326 28.5701 154.976 27.2501 154.676 25.1201H165.536C165.566 24.7901 165.596 24.3401 165.596 23.7701C165.596 20.3201 163.466 16.3901 158.126 16.3901C152.996 16.3901 150.656 20.3201 150.656 24.1601C150.656 27.9701 153.296 31.9901 158.426 31.9901C162.146 31.9901 165.026 29.8901 165.626 26.6201H161.546ZM158.126 19.4501C160.136 19.4501 161.306 20.8001 161.426 22.4801H154.736C155.096 20.3801 156.236 19.4501 158.126 19.4501Z" fill="#FE4A0F"/>
</svg>
